<?xml version="1.0" encoding="utf-8"?>
<!-- Generator: Adobe Illustrator 25.2.3, SVG Export Plug-In . SVG Version: 6.00 Build 0)  -->
<svg version="1.1" id="Layer_1" xmlns="http://www.w3.org/2000/svg" xmlns:xlink="http://www.w3.org/1999/xlink" x="0px" y="0px"
	 viewBox="0 0 268 268" style="enable-background:new 0 0 268 268;" xml:space="preserve">
<style type="text/css">
	.st0{fill:#F0F0F0;}
	.st1{fill:#022A59;}
	.st2{fill:#BEC1CA;}
	.st3{clip-path:url(#SVGID_2_);}
	.st4{fill:#0331A0;}
	.st5{fill:#1D345E;}
	.st6{fill:#E6E7EB;}
	.st7{fill:none;stroke:#F3B606;stroke-width:2;stroke-miterlimit:10;}
	.st8{clip-path:url(#SVGID_4_);}
	.st9{clip-path:url(#SVGID_4_);fill:#F0F0F0;}
</style>
<path class="st0" d="M241.7,118.84l-6.9-33.6c0,0-2.1-12.2-2-20.1c0,0-0.8-26.9-19.3-35.6c0,0-6.5-3-15-5c0,0-20.8-6-33.5-14.9
	c0,0-10.9,20.2-31,24.8c-20.1-4.6-31-24.8-31-24.8c-12.8,8.9-33.6,14.9-33.6,14.9c-8.5,2-15,5-15,5c-18.6,8.7-19.3,35.6-19.3,35.6
	c0.1,7.9-2,20.1-2,20.1l-6.8,33.6c-0.1,0.3,0,0.6,0.2,0.8c7.5,8.3,33.2,5.9,37.3,5.3c0.4-0.1,0.7-0.4,0.8-0.8
	c1.2-8.7,2.3-15.1,3.5-23.9c4.3,8,8.4,17.5,11.1,32.9c2.9,17-0.1,48-0.9,58c-2.1,27.7-3.1,32.5-4.7,52.2c-0.5,5.6,2.6,11,7.6,13.5
	c22.2,10.9,50.5,10.6,52.8,10.6s30.6,0.3,52.8-10.6c5.1-2.5,8.1-7.8,7.6-13.4c-1.6-19.7-2.6-24.4-4.7-52.2c-0.8-10-3.8-41-0.9-58
	c2.7-15.4,6.8-25,11.1-32.9c1.2,8.8,2.3,15.2,3.5,23.9c0.1,0.4,0.4,0.7,0.8,0.8c4.1,0.6,29.8,3,37.3-5.3
	C241.7,119.44,241.8,119.14,241.7,118.84z"/>
<g>
	<path class="st1" d="M134.24,36.19l-3.44,0.55l-3.45,0.49c-2.3,0.29-4.6,0.59-6.92,0.78c2.28-0.43,4.58-0.75,6.88-1.08
		C129.62,36.65,131.92,36.33,134.24,36.19z"/>
</g>
<g>
	<path class="st2" d="M95.84,13.97c2.19,3.5,4.76,6.76,7.52,9.83c2.77,3.06,5.8,5.88,9.04,8.42c3.21,2.58,6.73,4.75,10.4,6.59
		l2.78,1.31l2.88,1.08l1.44,0.53l1.48,0.4l2.96,0.8h-0.22l2.94-0.79l1.47-0.4l1.43-0.53l2.86-1.07l2.76-1.31
		c3.64-1.83,7.13-4,10.31-6.58c3.2-2.54,6.19-5.36,8.92-8.42c2.72-3.07,5.23-6.33,7.37-9.84c-2.06,3.55-4.52,6.87-7.18,10
		c-2.68,3.12-5.62,6.02-8.8,8.65c-3.15,2.66-6.63,4.93-10.28,6.86l-2.78,1.39l-2.89,1.15l-1.45,0.57l-1.49,0.43l-2.99,0.87
		l-0.11,0.03l-0.11-0.03l-3.01-0.87l-1.5-0.44l-1.46-0.57l-2.9-1.15l-2.8-1.39c-3.68-1.94-7.19-4.2-10.37-6.87
		c-3.21-2.63-6.19-5.52-8.91-8.65C100.47,20.83,97.96,17.52,95.84,13.97z"/>
</g>
<g>
	<defs>
		<path id="SVGID_1_" d="M198.5,24.54c0,0-17.31-5-29.99-12.63l-4.69-0.31c-3.32,5.18-13.55,19.12-29.82,22.84
			c-16.26-3.72-26.5-17.65-29.82-22.83l-4.73,0.31C86.7,19.55,69.4,24.54,69.4,24.54l-1.3,75.7c4.3,8,8.4,17.5,11.1,32.9
			c2.9,17-0.1,48-0.9,58c-2.1,27.7-3.1,32.5-4.7,52.2c-0.5,5.6,2.6,11,7.6,13.5c22.2,10.9,50.5,10.6,52.8,10.6s30.6,0.3,52.8-10.6
			c5.1-2.5,8.1-7.8,7.6-13.4c-1.6-19.7-2.6-24.4-4.7-52.2c-0.8-10-3.8-41-0.9-58c2.7-15.4,6.8-25,11.1-32.9c0,0.02,0,0.03,0.01,0.05
			c0.02-0.05,0.03-0.1,0.04-0.15L198.5,24.54z"/>
	</defs>
	<clipPath id="SVGID_2_">
		<use xlink:href="#SVGID_1_"  style="overflow:visible;"/>
	</clipPath>
	<g class="st3">
		<g>
			<g>
				<rect x="67.71" y="2.64" class="st4" width="16.07" height="282.69"/>
			</g>
		</g>
		<g>
			<g>
				<rect x="96.84" y="2.64" class="st4" width="16.07" height="282.69"/>
			</g>
		</g>
		<g>
			<rect x="125.96" y="2.64" class="st4" width="16.07" height="282.69"/>
		</g>
		<g>
			<g>
				<rect x="155.09" y="2.64" class="st4" width="16.07" height="282.69"/>
			</g>
		</g>
		<g>
			<g>
				<rect x="184.22" y="2.64" class="st4" width="16.07" height="282.69"/>
			</g>
		</g>
	</g>
</g>
<g>
	<polygon class="st5" points="156.05,29.84 166.14,14.78 155.11,6.03 113.99,6.22 101.08,15.4 115.24,31.59 134.49,41.47 	"/>
	<polygon class="st4" points="156.66,29.72 166.75,14.65 155.72,5.9 114.6,6.09 101.7,15.28 115.86,31.47 135.1,41.34 	"/>
	<path class="st6" d="M164.91,14.55l2.95-6.18c0,0-33.25-17.55-67.76,0l2.55,6.42c0-0.01,15.45-5.15,30.96,0
		C133.61,14.79,148.1,9.64,164.91,14.55z"/>
	<path class="st7" d="M102.65,14.79c0-0.01,15.45-5.15,30.96,0c0,0,14.49-5.15,31.3-0.24"/>
	<path class="st0" d="M167.86,8.36c-4.01,7.38-14.76,23.55-33.62,27.83c-19.19-4.36-30.19-20.76-34.14-27.83l-4.26,5.61
		c0,0,13.72,23.83,38.4,29.44c24.67-5.61,37.96-29.42,37.96-29.42L167.86,8.36z"/>
</g>
<g>
	<defs>
		<path id="SVGID_3_" d="M241.72,118.86l-6.86-33.63c0,0-2.06-12.15-1.99-20.09c0,0-0.76-26.89-19.33-35.6c0,0-6.49-2.98-14.97-4.97
			c0,0-20.78-6.04-33.54-14.9c0,0-10.95,20.25-31.03,24.83c-20.08-4.59-31.03-24.83-31.03-24.83c-12.76,8.86-33.54,14.9-33.54,14.9
			c-8.48,1.99-14.97,4.97-14.97,4.97c-18.56,8.71-19.33,35.6-19.33,35.6c0.08,7.95-1.99,20.09-1.99,20.09l-6.86,33.63
			c-0.06,0.28,0.01,0.58,0.21,0.79c7.45,8.28,33.18,5.89,37.28,5.33c0.41-0.06,0.73-0.38,0.79-0.79c1.19-8.71,2.28-15.08,3.47-23.91
			c4.29,7.97,8.43,17.48,11.11,32.93c2.94,16.96-0.11,48.02-0.87,57.98c-2.12,27.72-3.07,32.48-4.68,52.17
			c-0.46,5.63,2.56,10.97,7.63,13.45c22.21,10.9,50.5,10.65,52.8,10.62c2.29,0.03,30.59,0.28,52.8-10.62
			c5.07-2.49,8.09-7.83,7.63-13.45c-1.61-19.69-2.56-24.45-4.68-52.17c-0.76-9.96-3.81-41.02-0.87-57.98
			c2.68-15.44,6.82-24.96,11.11-32.93c1.19,8.83,2.28,15.2,3.47,23.91c0.06,0.41,0.38,0.73,0.79,0.79
			c4.1,0.55,29.83,2.95,37.28-5.33C241.71,119.43,241.78,119.14,241.72,118.86z"/>
	</defs>
	<clipPath id="SVGID_4_">
		<use xlink:href="#SVGID_3_"  style="overflow:visible;"/>
	</clipPath>
	<g class="st8">
		<path class="st4" d="M70.29,28.69c0,0-16.52,3.13-23.23,14.72s-5.94,34.82-9.55,50.04s-5.85,26.35-5.85,26.35l14.19,3.87
			c0,0,6.36-31.51,7.4-44.67s3.1-22.97,5.16-27.1c2.06-4.13,6.71-10.03,14.71-10.44L70.29,28.69z"/>
		<path class="st4" d="M67.26,122.1c-0.9-0.52-8.84,0-8.84,0s6-35.35,7.16-40.97c1.16-5.61,5.81-9.1,5.81-9.1L67.26,122.1z"/>
		<path class="st4" d="M197.71,28.69c0,0,16.52,3.13,23.23,14.72c6.71,11.59,5.94,34.82,9.55,50.04s5.83,26.33,5.83,26.33
			l-14.19,3.87c0,0-6.34-31.49-7.37-44.65c-1.03-13.16-3.1-22.97-5.16-27.1s-6.71-10.03-14.71-10.44L197.71,28.69z"/>
		<path class="st4" d="M200.74,122.1c0.9-0.52,8.84,0,8.84,0s-6-35.35-7.16-40.97c-1.16-5.61-5.81-9.1-5.81-9.1L200.74,122.1z"/>
	</g>
	<path class="st9" d="M27.07,116.22c0,0,5.99,3.78,14.89,4.81s23.35-0.23,23.35-0.23s4.39,5.52,1.16,8.61
		c-3.23,3.1-23.1,1.16-33.03-1.29c-9.94-2.45-12.77-2.71-10.19-6.06C25.84,118.71,24.66,114.95,27.07,116.22z"/>
	<path class="st9" d="M240.93,116.22c0,0-5.99,3.78-14.89,4.81s-23.05-0.18-23.05-0.18s-4.69,5.47-1.46,8.56
		c3.23,3.1,23.1,1.16,33.03-1.29c9.94-2.45,12.77-2.71,10.19-6.06C242.16,118.71,243.34,114.95,240.93,116.22z"/>
</g>
</svg>
