<?xml version="1.0" encoding="utf-8"?>
<!-- Generator: Adobe Illustrator 25.3.1, SVG Export Plug-In . SVG Version: 6.00 Build 0)  -->
<svg version="1.1" id="Layer_1" xmlns="http://www.w3.org/2000/svg" xmlns:xlink="http://www.w3.org/1999/xlink" x="0px" y="0px"
	 viewBox="0 0 268 268" style="enable-background:new 0 0 268 268;" xml:space="preserve">
<style type="text/css">
	.st0{fill:#D41620;}
	.st1{clip-path:url(#SVGID_2_);fill:#1A4CAD;}
	.st2{clip-path:url(#SVGID_4_);}
	.st3{fill:#1944A3;}
	.st4{fill:#333487;}
	.st5{fill:#991C22;}
	.st6{fill:#0E1F4D;}
	.st7{fill:#1A4CAD;}
</style>
<g>
	<g>
		<g>
			<path id="SVGID_8_" class="st0" d="M241.72,118.51l-6.86-33.63c0,0-2.06-12.15-1.99-20.09c0,0-0.76-26.89-19.33-35.6
				c0,0-6.49-2.98-14.97-4.97c0,0-20.78-6.04-33.54-14.9c0,0-10.95,20.25-31.03,24.83c-20.08-4.59-31.03-24.83-31.03-24.83
				c-12.76,8.86-33.54,14.9-33.54,14.9c-8.48,1.99-14.97,4.97-14.97,4.97C35.9,37.91,35.13,64.8,35.13,64.8
				c0.08,7.95-1.99,20.09-1.99,20.09l-6.86,33.63c-0.06,0.28,0.01,0.58,0.21,0.79c7.45,8.28,33.18,5.89,37.28,5.33
				c0.41-0.06,0.73-0.38,0.79-0.79c1.19-8.71,2.28-15.08,3.47-23.91c4.29,7.97,8.43,17.48,11.11,32.93
				c2.94,16.96-0.11,48.02-0.87,57.98c-2.12,27.72-3.07,32.48-4.68,52.17c-0.46,5.63,2.56,10.97,7.63,13.45
				c22.21,10.9,50.5,10.65,52.8,10.62c2.29,0.03,30.59,0.28,52.8-10.62c5.07-2.49,8.09-7.83,7.63-13.45
				c-1.61-19.69-2.56-24.45-4.68-52.17c-0.76-9.96-3.81-41.02-0.87-57.98c2.68-15.44,6.82-24.96,11.11-32.93
				c1.19,8.83,2.28,15.2,3.47,23.91c0.06,0.41,0.38,0.73,0.79,0.79c4.1,0.55,29.83,2.95,37.28-5.33
				C241.71,119.09,241.78,118.79,241.72,118.51z"/>
		</g>
	</g>
</g>
<g>
	<defs>
		<path id="SVGID_1_" d="M241.72,118.86l-6.86-33.63c0,0-2.06-12.15-1.99-20.09c0,0-0.76-26.89-19.33-35.6c0,0-6.49-2.98-14.97-4.97
			c0,0-20.78-6.04-33.54-14.9c0,0-10.95,20.25-31.03,24.83c-20.08-4.59-31.03-24.83-31.03-24.83c-12.76,8.86-33.54,14.9-33.54,14.9
			c-8.48,1.99-14.97,4.97-14.97,4.97c-18.56,8.71-19.33,35.6-19.33,35.6c0.08,7.95-1.99,20.09-1.99,20.09l-6.86,33.63
			c-0.06,0.28,0.01,0.58,0.21,0.79c7.45,8.28,33.18,5.89,37.28,5.33c0.41-0.06,0.73-0.38,0.79-0.79c1.19-8.71,2.28-15.08,3.47-23.91
			c4.29,7.97,8.43,17.48,11.11,32.93c2.94,16.96-0.11,48.02-0.87,57.98c-2.12,27.72-3.07,32.48-4.68,52.17
			c-0.46,5.63,2.56,10.97,7.63,13.45c22.21,10.9,50.5,10.65,52.8,10.62c2.29,0.03,30.59,0.28,52.8-10.62
			c5.07-2.49,8.09-7.83,7.63-13.45c-1.61-19.69-2.56-24.45-4.68-52.17c-0.76-9.96-3.81-41.02-0.87-57.98
			c2.68-15.44,6.82-24.96,11.11-32.93c1.19,8.83,2.28,15.2,3.47,23.91c0.06,0.41,0.38,0.73,0.79,0.79
			c4.1,0.55,29.83,2.95,37.28-5.33C241.71,119.43,241.78,119.14,241.72,118.86z"/>
	</defs>
	<clipPath id="SVGID_2_">
		<use xlink:href="#SVGID_1_"  style="overflow:visible;"/>
	</clipPath>
	<path class="st1" d="M27.07,116.22c0,0,5.99,3.78,14.89,4.81s23.35-0.23,23.35-0.23s4.39,5.52,1.16,8.61
		c-3.23,3.1-23.1,1.16-33.03-1.29c-9.94-2.45-12.77-2.71-10.19-6.06C25.84,118.71,24.66,114.95,27.07,116.22z"/>
	<path class="st1" d="M240.93,116.22c0,0-5.99,3.78-14.89,4.81s-23.05-0.18-23.05-0.18s-4.69,5.47-1.46,8.56
		c3.23,3.1,23.1,1.16,33.03-1.29c9.94-2.45,12.77-2.71,10.19-6.06C242.16,118.71,243.34,114.95,240.93,116.22z"/>
</g>
<g>
	<defs>
		<path id="SVGID_3_" d="M194.45,243.02c-1.61-19.69-2.56-24.45-4.68-52.17c-0.76-9.96-3.81-41.02-0.87-57.98
			c2.68-15.44,6.82-24.96,11.11-32.93c0.01,0.04,0.01,0.07,0.02,0.11c0.74-3.67,10.27-51.3,6.75-62.56
			c-3.66-11.71-50.35-14.08-50.35-14.08h-2.8c-5,4.56-11.58,8.91-19.63,10.75c-8.05-1.84-14.62-6.19-19.62-10.75h-2.8
			c0,0-46.69,2.36-50.35,14.08c-3.56,11.4,6.24,60.07,6.77,62.68c0.01-0.08,0.02-0.15,0.03-0.23c4.29,7.97,8.43,17.48,11.11,32.93
			c2.94,16.96-0.11,48.02-0.87,57.98c-2.12,27.72-3.07,32.48-4.68,52.17c-0.46,5.63,2.56,10.97,7.63,13.45
			c22.21,10.9,50.5,10.65,52.8,10.62c2.29,0.03,30.59,0.28,52.8-10.62C191.89,253.97,194.91,248.64,194.45,243.02z"/>
	</defs>
	<clipPath id="SVGID_4_">
		<use xlink:href="#SVGID_3_"  style="overflow:visible;"/>
	</clipPath>
	<g class="st2">
		<g>
			
				<rect x="110.61" y="-0.26" transform="matrix(0.9404 0.3401 -0.3401 0.9404 53.9072 -34.9398)" class="st3" width="32.06" height="273.18"/>
			
				<rect x="141.54" y="5.88" transform="matrix(0.9404 0.3401 -0.3401 0.9404 57.0061 -40.3464)" class="st4" width="4.15" height="273.18"/>
			
				<rect x="108.47" y="-8.78" transform="matrix(0.9404 0.3401 -0.3401 0.9404 50.0522 -29.9732)" class="st4" width="4.15" height="273.18"/>
		</g>
		<g>
			
				<rect x="48.58" y="8.06" transform="matrix(0.9404 0.3401 -0.3401 0.9404 37.8057 -16.0213)" class="st3" width="32.06" height="183.59"/>
			
				<rect x="79.51" y="14.2" transform="matrix(0.9404 0.3401 -0.3401 0.9404 40.9046 -21.4278)" class="st4" width="4.15" height="183.59"/>
			
				<rect x="46.16" y="0.32" transform="matrix(0.9404 0.3401 -0.3401 0.9404 34.1996 -10.912)" class="st4" width="4.15" height="183.59"/>
		</g>
		<g>
			
				<rect x="180.19" y="17.57" transform="matrix(0.9404 0.3401 -0.3401 0.9404 62.594 -57.8048)" class="st3" width="32.06" height="264.23"/>
			
				<rect x="211.12" y="23.71" transform="matrix(0.9404 0.3401 -0.3401 0.9404 65.6929 -63.2113)" class="st4" width="4.15" height="264.23"/>
			
				<rect x="178.02" y="9.13" transform="matrix(0.9404 0.3401 -0.3401 0.9404 58.7639 -52.8239)" class="st4" width="4.15" height="264.23"/>
		</g>
	</g>
</g>
<g>
	<polygon class="st5" points="155.88,29.49 165.94,14.43 154.94,5.68 113.94,5.87 101.07,15.05 115.19,31.24 134.38,41.12 	"/>
	<path class="st6" d="M164.72,14.2l2.94-6.18c0,0-33.16-17.55-67.57,0l2.54,6.42C102.63,14.43,130.5-1.03,164.72,14.2z"/>
	<path class="st7" d="M167.66,8.01c-9.4,21.79-32.18,27.34-33.53,33.11c-0.9-4.35-23.87-12.16-34.04-33.11l-4.25,5.61
		c0,0,13.68,23.83,38.29,29.44c24.6-5.61,37.85-29.42,37.85-29.42L167.66,8.01z"/>
</g>
</svg>
