<?xml version="1.0" encoding="utf-8"?>
<!-- Generator: Adobe Illustrator 25.2.3, SVG Export Plug-In . SVG Version: 6.00 Build 0)  -->
<svg version="1.1" id="Layer_1" xmlns="http://www.w3.org/2000/svg" xmlns:xlink="http://www.w3.org/1999/xlink" x="0px" y="0px"
	 viewBox="0 0 268 268" style="enable-background:new 0 0 268 268;" xml:space="preserve">
<style type="text/css">
	.st0{fill:#A5031A;}
	.st1{clip-path:url(#SVGID_2_);}
	.st2{fill:#FE330E;}
	.st3{clip-path:url(#SVGID_4_);}
	.st4{fill:#F0F0F0;}
	.st5{clip-path:url(#SVGID_6_);}
	.st6{fill:#C91C05;}
	.st7{fill:#06373C;}
	.st8{fill:#BF1E08;}
	.st9{fill:#FFFFFF;}
</style>
<path class="st0" d="M241.7,118.84l-6.9-33.6c0,0-2.1-12.2-2-20.1c0,0-0.8-26.9-19.3-35.6c0,0-6.5-3-15-5c0,0-20.8-6-33.5-14.9
	c0,0-10.9,20.2-31,24.8c-20.1-4.6-31-24.8-31-24.8c-12.8,8.9-33.6,14.9-33.6,14.9c-8.5,2-15,5-15,5c-18.6,8.7-19.3,35.6-19.3,35.6
	c0.1,7.9-2,20.1-2,20.1l-6.8,33.6c-0.1,0.3,0,0.6,0.2,0.8c7.5,8.3,33.2,5.9,37.3,5.3c0.4-0.1,0.7-0.4,0.8-0.8
	c1.2-8.7,2.3-15.1,3.5-23.9c4.3,8,8.4,17.5,11.1,32.9c2.9,17-0.1,48-0.9,58c-2.1,27.7-3.1,32.5-4.7,52.2c-0.5,5.6,2.6,11,7.6,13.5
	c22.2,10.9,50.5,10.6,52.8,10.6s30.6,0.3,52.8-10.6c5.1-2.5,8.1-7.8,7.6-13.4c-1.6-19.7-2.6-24.4-4.7-52.2c-0.8-10-3.8-41-0.9-58
	c2.7-15.4,6.8-25,11.1-32.9c1.2,8.8,2.3,15.2,3.5,23.9c0.1,0.4,0.4,0.7,0.8,0.8c4.1,0.6,29.8,3,37.3-5.3
	C241.7,119.44,241.8,119.14,241.7,118.84z"/>
<g>
	<g>
		<defs>
			<path id="SVGID_1_" d="M241.7,118.84l-6.9-33.6c0,0-2.1-12.2-2-20.1c0,0-0.8-26.9-19.3-35.6c0,0-6.5-3-15-5c0,0-20.8-6-33.5-14.9
				c0,0-10.9,20.2-31,24.8c-20.1-4.6-31-24.8-31-24.8c-12.8,8.9-33.6,14.9-33.6,14.9c-8.5,2-15,5-15,5
				c-18.6,8.7-19.3,35.6-19.3,35.6c0.1,7.9-2,20.1-2,20.1l-6.8,33.6c-0.1,0.3,0,0.6,0.2,0.8c7.5,8.3,33.2,5.9,37.3,5.3
				c0.4-0.1,0.7-0.4,0.8-0.8c1.2-8.7,2.3-15.1,3.5-23.9c4.3,8,8.4,17.5,11.1,32.9c2.9,17-0.1,48-0.9,58c-2.1,27.7-3.1,32.5-4.7,52.2
				c-0.5,5.6,2.6,11,7.6,13.5c22.2,10.9,50.5,10.6,52.8,10.6s30.6,0.3,52.8-10.6c5.1-2.5,8.1-7.8,7.6-13.4
				c-1.6-19.7-2.6-24.4-4.7-52.2c-0.8-10-3.8-41-0.9-58c2.7-15.4,6.8-25,11.1-32.9c1.2,8.8,2.3,15.2,3.5,23.9
				c0.1,0.4,0.4,0.7,0.8,0.8c4.1,0.6,29.8,3,37.3-5.3C241.7,119.44,241.8,119.14,241.7,118.84z"/>
		</defs>
		<clipPath id="SVGID_2_">
			<use xlink:href="#SVGID_1_"  style="overflow:visible;"/>
		</clipPath>
		<g class="st1">
			<path class="st2" d="M27.46,113.39c0,0,5.38,3.9,14.28,4.93s23.89-0.63,23.89-0.63s4.46,5.8,1.23,8.9
				c-3.23,3.1-23.1,1.16-33.03-1.29s-12.77-2.71-10.19-6.06C26.22,115.88,25.05,112.12,27.46,113.39z"/>
		</g>
	</g>
	<g>
		<defs>
			<path id="SVGID_3_" d="M241.7,118.84l-6.9-33.6c0,0-2.1-12.2-2-20.1c0,0-0.8-26.9-19.3-35.6c0,0-6.5-3-15-5c0,0-20.8-6-33.5-14.9
				c0,0-10.9,20.2-31,24.8c-20.1-4.6-31-24.8-31-24.8c-12.8,8.9-33.6,14.9-33.6,14.9c-8.5,2-15,5-15,5
				c-18.6,8.7-19.3,35.6-19.3,35.6c0.1,7.9-2,20.1-2,20.1l-6.8,33.6c-0.1,0.3,0,0.6,0.2,0.8c7.5,8.3,33.2,5.9,37.3,5.3
				c0.4-0.1,0.7-0.4,0.8-0.8c1.2-8.7,2.3-15.1,3.5-23.9c4.3,8,8.4,17.5,11.1,32.9c2.9,17-0.1,48-0.9,58c-2.1,27.7-3.1,32.5-4.7,52.2
				c-0.5,5.6,2.6,11,7.6,13.5c22.2,10.9,50.5,10.6,52.8,10.6s30.6,0.3,52.8-10.6c5.1-2.5,8.1-7.8,7.6-13.4
				c-1.6-19.7-2.6-24.4-4.7-52.2c-0.8-10-3.8-41-0.9-58c2.7-15.4,6.8-25,11.1-32.9c1.2,8.8,2.3,15.2,3.5,23.9
				c0.1,0.4,0.4,0.7,0.8,0.8c4.1,0.6,29.8,3,37.3-5.3C241.7,119.44,241.8,119.14,241.7,118.84z"/>
		</defs>
		<clipPath id="SVGID_4_">
			<use xlink:href="#SVGID_3_"  style="overflow:visible;"/>
		</clipPath>
		<g class="st3">
			<path class="st2" d="M240.56,113.39c0,0-5.38,3.9-14.28,4.93s-23.89-0.63-23.89-0.63s-4.46,5.8-1.23,8.9
				c3.23,3.1,23.1,1.16,33.03-1.29s12.77-2.71,10.19-6.06C241.8,115.88,242.98,112.12,240.56,113.39z"/>
		</g>
	</g>
</g>
<g>
	<path class="st4" d="M202.39,117.69c0.26,0.85,0.41,1.72,0.56,2.58c0.12,0.87,0.25,1.74,0.27,2.63c-0.26-0.85-0.41-1.72-0.56-2.58
		C202.53,119.45,202.4,118.58,202.39,117.69z"/>
</g>
<g>
	<path class="st4" d="M240.56,113.39c0.27,0.71,0.43,1.44,0.6,2.17c0.14,0.74,0.28,1.47,0.31,2.23c-0.27-0.71-0.43-1.44-0.6-2.17
		C240.74,114.88,240.59,114.15,240.56,113.39z"/>
</g>
<g>
	<path class="st4" d="M65.53,117.69c0,0.89-0.12,1.76-0.23,2.63c-0.14,0.87-0.28,1.74-0.53,2.59c0-0.89,0.12-1.76,0.23-2.63
		C65.14,119.41,65.28,118.55,65.53,117.69z"/>
</g>
<g>
	<path class="st4" d="M27.46,113.39c-0.03,0.76-0.17,1.5-0.31,2.23c-0.17,0.73-0.33,1.46-0.6,2.17c0.03-0.76,0.17-1.5,0.31-2.23
		C27.03,114.83,27.19,114.1,27.46,113.39z"/>
</g>
<g>
	<defs>
		<path id="SVGID_5_" d="M241.7,118.84l-6.9-33.6c0,0-2.1-12.2-2-20.1c0,0-0.8-26.9-19.3-35.6c0,0-6.5-3-15-5c0,0-20.8-6-33.5-14.9
			c0,0-10.9,20.2-31,24.8c-20.1-4.6-31-24.8-31-24.8c-12.8,8.9-33.6,14.9-33.6,14.9c-8.5,2-15,5-15,5c-18.6,8.7-19.3,35.6-19.3,35.6
			c0.1,7.9-2,20.1-2,20.1l-6.8,33.6c-0.1,0.3,0,0.6,0.2,0.8c7.5,8.3,33.2,5.9,37.3,5.3c0.4-0.1,0.7-0.4,0.8-0.8
			c1.2-8.7,2.3-15.1,3.5-23.9c4.3,8,8.4,17.5,11.1,32.9c2.9,17-0.1,48-0.9,58c-2.1,27.7-3.1,32.5-4.7,52.2c-0.5,5.6,2.6,11,7.6,13.5
			c22.2,10.9,50.5,10.6,52.8,10.6s30.6,0.3,52.8-10.6c5.1-2.5,8.1-7.8,7.6-13.4c-1.6-19.7-2.6-24.4-4.7-52.2c-0.8-10-3.8-41-0.9-58
			c2.7-15.4,6.8-25,11.1-32.9c1.2,8.8,2.3,15.2,3.5,23.9c0.1,0.4,0.4,0.7,0.8,0.8c4.1,0.6,29.8,3,37.3-5.3
			C241.7,119.44,241.8,119.14,241.7,118.84z"/>
	</defs>
	<clipPath id="SVGID_6_">
		<use xlink:href="#SVGID_5_"  style="overflow:visible;"/>
	</clipPath>
	<g class="st5">
		<g>
			<polygon class="st2" points="122.76,64.56 130.75,73.31 138.67,82.1 154.44,99.78 155.1,100.53 154.11,100.41 151.35,100.08 
				151.68,99.45 167.07,116.91 174.72,125.67 182.31,134.49 174.45,125.91 166.64,117.29 151.12,99.96 150.45,99.21 151.44,99.33 
				154.2,99.65 153.87,100.28 138.24,82.49 130.47,73.55 			"/>
		</g>
		<g>
			<polygon class="st2" points="64.62,-5.2 72.61,3.54 80.53,12.34 96.3,30.02 96.96,30.76 95.97,30.65 93.21,30.32 93.54,29.69 
				108.93,47.14 116.58,55.91 124.17,64.73 116.31,56.15 108.5,47.53 92.97,30.2 92.31,29.45 93.3,29.57 96.06,29.89 95.73,30.52 
				80.1,12.73 72.33,3.79 			"/>
		</g>
		<g>
			<polygon class="st2" points="181.15,134.35 189.13,143.1 197.06,151.89 212.82,169.57 213.49,170.32 212.49,170.2 209.74,169.87 
				210.06,169.24 225.45,186.7 233.1,195.46 240.69,204.28 232.83,195.7 225.02,187.08 209.5,169.75 208.83,169 209.82,169.12 
				212.58,169.44 212.25,170.07 196.62,152.28 188.86,143.34 			"/>
		</g>
		<g>
			<polygon class="st2" points="153.93,40.76 161.92,49.51 169.84,58.31 185.61,75.98 186.27,76.73 185.28,76.61 182.52,76.29 
				182.85,75.66 198.24,93.11 205.89,101.88 213.48,110.69 205.62,102.12 197.81,93.49 182.28,76.16 181.62,75.42 182.61,75.53 
				185.37,75.85 185.04,76.48 169.41,58.69 161.64,49.75 			"/>
		</g>
		<g>
			<polygon class="st2" points="95.79,-29 103.77,-20.25 111.7,-11.46 127.46,6.22 128.13,6.97 127.13,6.85 124.38,6.52 124.71,5.9 
				140.1,23.35 147.74,32.11 155.34,40.93 147.47,32.35 139.67,23.73 124.14,6.4 123.47,5.65 124.47,5.77 127.22,6.09 126.89,6.72 
				111.27,-11.07 103.5,-20.01 			"/>
		</g>
		<g>
			<polygon class="st2" points="212.31,110.55 220.3,119.3 228.22,128.1 243.99,145.77 244.65,146.52 243.66,146.4 240.9,146.08 
				241.23,145.45 256.62,162.9 264.27,171.67 271.86,180.48 264,171.91 256.19,163.28 240.67,145.95 240,145.21 240.99,145.32 
				243.75,145.65 243.42,146.28 227.79,128.48 220.02,119.54 			"/>
		</g>
		<g>
			<polygon class="st2" points="206.86,52.08 214.84,60.83 222.77,69.62 238.53,87.3 239.2,88.05 238.2,87.93 235.45,87.6 
				235.77,86.98 251.16,104.43 258.81,113.19 266.4,122.01 258.54,113.43 250.73,104.81 235.21,87.48 234.54,86.73 235.53,86.85 
				238.29,87.17 237.96,87.8 222.33,70.01 214.57,61.07 			"/>
		</g>
		<g>
			<polygon class="st2" points="148.71,-17.68 156.7,-8.93 164.63,-0.14 180.39,17.54 181.06,18.28 180.06,18.17 177.3,17.84 
				177.63,17.21 193.02,34.67 200.67,43.43 208.26,52.25 200.4,43.67 192.59,35.05 177.07,17.72 176.4,16.97 177.39,17.09 
				180.15,17.41 179.82,18.04 164.19,0.25 156.42,-8.69 			"/>
		</g>
		<g>
			<polygon class="st2" points="93.78,89.38 101.76,98.12 109.69,106.92 125.45,124.59 126.12,125.34 125.12,125.22 122.37,124.9 
				122.7,124.27 138.08,141.72 145.73,150.49 153.33,159.3 145.46,150.73 137.65,142.1 122.13,124.77 121.46,124.03 122.46,124.15 
				125.21,124.47 124.88,125.1 109.26,107.3 101.49,98.37 			"/>
		</g>
		<g>
			<polygon class="st2" points="210.42,226.37 218.4,235.11 226.33,243.91 242.09,261.58 242.76,262.33 241.76,262.21 
				239.01,261.89 239.33,261.26 254.72,278.71 262.37,287.48 269.96,296.29 262.1,287.72 254.29,279.09 238.77,261.76 238.1,261.02 
				239.1,261.14 241.85,261.46 241.52,262.09 225.89,244.29 218.13,235.35 			"/>
		</g>
		<g>
			<polygon class="st2" points="184.85,249.96 192.84,258.71 200.76,267.5 216.53,285.18 217.19,285.93 216.2,285.81 213.44,285.48 
				213.77,284.85 229.16,302.31 236.81,311.07 244.4,319.89 236.54,311.31 228.73,302.69 213.2,285.36 212.54,284.61 213.53,284.73 
				216.29,285.05 215.96,285.68 200.33,267.89 192.56,258.95 			"/>
		</g>
		<g>
			<polygon class="st2" points="153.27,272.08 161.26,280.82 169.19,289.62 184.95,307.3 185.62,308.04 184.62,307.93 181.86,307.6 
				182.19,306.97 197.58,324.42 205.23,333.19 212.82,342.01 204.96,333.43 197.15,324.81 181.63,307.48 180.96,306.73 
				181.95,306.85 184.71,307.17 184.38,307.8 168.75,290 160.98,281.07 			"/>
		</g>
		<g>
			<polygon class="st2" points="35.64,19.62 43.62,28.36 51.55,37.16 67.31,54.83 67.98,55.58 66.98,55.46 64.23,55.14 64.56,54.51 
				79.94,71.96 87.59,80.73 95.18,89.54 87.32,80.97 79.51,72.34 63.99,55.01 63.32,54.27 64.32,54.38 67.07,54.71 66.74,55.34 
				51.11,37.54 43.35,28.6 			"/>
		</g>
		<g>
			<polygon class="st2" points="152.16,159.17 160.14,167.91 168.07,176.71 183.84,194.38 184.5,195.13 183.51,195.01 
				180.75,194.69 181.08,194.06 196.47,211.51 204.11,220.28 211.71,229.1 203.84,220.52 196.04,211.9 180.51,194.56 179.85,193.82 
				180.84,193.94 183.59,194.26 183.27,194.89 167.64,177.09 159.87,168.16 			"/>
		</g>
		<g>
			<polygon class="st2" points="66.92,111.58 74.91,120.33 82.83,129.12 98.6,146.8 99.26,147.54 98.27,147.43 95.51,147.1 
				95.84,146.47 111.23,163.92 118.88,172.69 126.47,181.51 118.61,172.93 110.8,164.31 95.27,146.98 94.61,146.23 95.6,146.35 
				98.36,146.67 98.03,147.3 82.4,129.51 74.63,120.57 			"/>
		</g>
		<g>
			<polygon class="st2" points="8.78,41.82 16.76,50.56 24.69,59.36 40.45,77.03 41.12,77.78 40.12,77.66 37.37,77.34 37.7,76.71 
				53.09,94.16 60.73,102.93 68.33,111.74 60.46,103.17 52.66,94.54 37.13,77.21 36.46,76.47 37.46,76.59 40.21,76.91 39.88,77.54 
				24.26,59.74 16.49,50.81 			"/>
		</g>
		<g>
			<polygon class="st2" points="125.3,181.37 133.29,190.12 141.21,198.91 156.98,216.59 157.64,217.33 156.65,217.22 
				153.89,216.89 154.22,216.26 169.61,233.72 177.26,242.48 184.85,251.3 176.99,242.72 169.18,234.1 153.66,216.77 152.99,216.02 
				153.98,216.14 156.74,216.46 156.41,217.09 140.78,199.3 133.01,190.36 			"/>
		</g>
		<g>
			<polygon class="st2" points="36.21,135.27 44.19,144.02 52.12,152.82 67.88,170.49 68.55,171.24 67.55,171.12 64.8,170.79 
				65.13,170.17 80.51,187.62 88.16,196.38 95.75,205.2 87.89,196.63 80.08,188 64.56,170.67 63.89,169.93 64.89,170.04 
				67.64,170.36 67.31,170.99 51.69,153.2 43.92,144.26 			"/>
		</g>
		<g>
			<polygon class="st2" points="-21.93,65.51 -13.95,74.26 -6.02,83.05 9.74,100.73 10.41,101.48 9.41,101.36 6.66,101.03 
				6.98,100.4 22.37,117.86 30.02,126.62 37.61,135.44 29.75,126.86 21.94,118.24 6.42,100.91 5.75,100.16 6.75,100.28 9.5,100.6 
				9.17,101.23 -6.46,83.44 -14.22,74.5 			"/>
		</g>
		<g>
			<polygon class="st2" points="94.59,205.06 102.57,213.81 110.5,222.61 126.26,240.28 126.93,241.03 125.93,240.91 123.18,240.59 
				123.51,239.96 138.9,257.41 146.54,266.18 154.14,274.99 146.27,266.42 138.47,257.79 122.94,240.46 122.27,239.72 
				123.27,239.83 126.02,240.15 125.69,240.78 110.07,222.99 102.3,214.05 			"/>
		</g>
		<g>
			<polygon class="st2" points="8.12,157.06 16.1,165.81 24.03,174.61 39.79,192.28 40.46,193.03 39.46,192.91 36.71,192.59 
				37.03,191.96 52.42,209.41 60.07,218.18 67.66,226.99 59.8,218.42 51.99,209.79 36.47,192.46 35.8,191.72 36.8,191.83 
				39.55,192.15 39.22,192.78 23.59,174.99 15.83,166.05 			"/>
		</g>
		<g>
			<polygon class="st2" points="66.5,226.85 74.48,235.6 82.41,244.4 98.17,262.07 98.84,262.82 97.84,262.7 95.09,262.38 
				95.42,261.75 110.8,279.2 118.45,287.97 126.05,296.78 118.18,288.21 110.37,279.58 94.85,262.25 94.18,261.51 95.18,261.62 
				97.93,261.95 97.6,262.58 81.98,244.78 74.21,235.84 			"/>
		</g>
	</g>
</g>
<g>
	<polygon class="st6" points="155.9,29.84 166,14.74 155,6.04 114,6.24 101.1,15.44 115.2,31.64 134.3,38.84 	"/>
	<path class="st7" d="M164.77,14.56l2.93-6.22c0,0-33.2-17.5-67.6,0l2.47,6.42C102.67,14.76,130.57-0.64,164.77,14.56z"/>
	<path class="st8" d="M167.08,9.62l0.62-1.28c0,0-33.2-17.5-67.6,0l0.48,1.33C132.18-6.09,162.6,7.45,167.08,9.62z"/>
	<path class="st2" d="M167.7,8.34c-1.6,3-4.4,7.5-8.3,12c-13.3,15.3-37,15.3-50.6,0.2c-4.2-4.6-7-9.2-8.7-12.2l-4.2,5.6
		c0,0,5.4,12.4,18,19.8c13.6,8,26.1,8.4,40.5-0.1c12.5-7.4,17.6-19.7,17.6-19.7L167.7,8.34z"/>
</g>
<g>
	<path class="st8" d="M167.08,9.62c0.66,1.04,1.03,2.24,1.24,3.46c0.22,1.22,0.23,2.47,0.11,3.71c-0.17,1.23-0.43,2.44-0.89,3.59
		c-0.2,0.58-0.5,1.13-0.74,1.69c-0.3,0.54-0.61,1.07-0.93,1.59c0.48-1.13,0.96-2.24,1.31-3.4c0.36-1.15,0.6-2.33,0.76-3.52
		c0.13-1.19,0.13-2.4,0.01-3.6C167.81,11.94,167.55,10.75,167.08,9.62z"/>
</g>
<path class="st7" d="M169.1,10.15c0,0,6.84,5.43,13.59,8.75c0,0-9.67-2.68-13.74,0.59c0,0,1.28-2.05,1.27-4.41
	C170.19,11.6,169.1,10.15,169.1,10.15z"/>
<path class="st9" d="M170.96,11.56c0,0,1.49,4.93-0.49,7.06c0,0,0.9-0.34,1.53-0.46c0,0,1.09-1.87,0.19-5.72l-0.47-0.36
	L170.96,11.56z"/>
<g>
	<path class="st8" d="M100.81,9.55c-0.47,1.12-0.73,2.3-0.86,3.48c-0.12,1.19-0.12,2.38,0.01,3.56c0.16,1.18,0.4,2.35,0.76,3.49
		c0.34,1.15,0.83,2.25,1.31,3.37c-0.32-0.51-0.63-1.04-0.93-1.57c-0.24-0.56-0.54-1.1-0.74-1.67c-0.46-1.14-0.72-2.34-0.89-3.56
		c-0.12-1.22-0.11-2.46,0.11-3.67C99.78,11.77,100.15,10.58,100.81,9.55z"/>
</g>
<path class="st7" d="M98.8,10.07c0,0-6.84,5.54-13.59,8.84c0,0,9.67-2.82,13.74,0.41c0,0-1.28-2.03-1.27-4.37
	C97.71,11.51,98.8,10.07,98.8,10.07z"/>
<path class="st9" d="M96.93,11.47c0,0-1.49,4.89,0.49,6.99c0,0-0.9-0.34-1.53-0.45c0,0-1.09-1.85-0.19-5.66l0.47-0.36L96.93,11.47z"
	/>
</svg>
