<?xml version="1.0" encoding="utf-8"?>
<!-- Generator: Adobe Illustrator 25.3.1, SVG Export Plug-In . SVG Version: 6.00 Build 0)  -->
<svg version="1.1" id="Layer_1" xmlns="http://www.w3.org/2000/svg" xmlns:xlink="http://www.w3.org/1999/xlink" x="0px" y="0px"
	 viewBox="0 0 268 268" style="enable-background:new 0 0 268 268;" xml:space="preserve">
<style type="text/css">
	.st0{fill:#124684;}
	.st1{clip-path:url(#SVGID_2_);fill:#F9DC20;}
	.st2{clip-path:url(#SVGID_2_);}
	.st3{fill:#EEEDED;}
	.st4{fill:#EDEDEC;}
	.st5{clip-path:url(#SVGID_4_);}
	.st6{clip-path:url(#SVGID_6_);fill:#F1F1F9;}
	.st7{clip-path:url(#SVGID_8_);fill:#F1F1F9;}
	.st8{clip-path:url(#SVGID_10_);}
	.st9{fill:#124D93;}
	.st10{fill:#1E61A8;}
	.st11{fill:#0D4286;}
	.st12{fill:#0A163C;}
	.st13{fill:#B09514;}
	.st14{fill:#C4C3C3;}
	.st15{fill:#F1F1F9;}
	.st16{fill:#F9DC20;}
</style>
<path class="st0" d="M241.7,118.85l-6.9-33.6c0,0-2.1-12.2-2-20.1c0,0-0.8-26.9-19.3-35.6c0,0-6.5-3-15-5c0,0-20.8-6-33.5-14.9
	c0,0-10.9,20.2-31,24.8c-20.1-4.6-31-24.8-31-24.8c-12.8,8.9-33.6,14.9-33.6,14.9c-8.5,2-15,5-15,5c-18.6,8.7-19.3,35.6-19.3,35.6
	c0.1,7.9-2,20.1-2,20.1l-6.8,33.6c-0.1,0.3,0,0.6,0.2,0.8c7.5,8.3,33.2,5.9,37.3,5.3c0.4-0.1,0.7-0.4,0.8-0.8
	c1.2-8.7,2.3-15.1,3.5-23.9c4.3,8,8.4,17.5,11.1,32.9c2.9,17-0.1,48-0.9,58c-2.1,27.7-3.1,32.5-4.7,52.2c-0.5,5.6,2.6,11,7.6,13.5
	c22.2,10.9,50.5,10.6,52.8,10.6s30.6,0.3,52.8-10.6c5.1-2.5,8.1-7.8,7.6-13.4c-1.6-19.7-2.6-24.4-4.7-52.2c-0.8-10-3.8-41-0.9-58
	c2.7-15.4,6.8-25,11.1-32.9c1.2,8.8,2.3,15.2,3.5,23.9c0.1,0.4,0.4,0.7,0.8,0.8c4.1,0.6,29.8,3,37.3-5.3
	C241.7,119.45,241.8,119.15,241.7,118.85z"/>
<g>
	<g>
		<defs>
			<path id="SVGID_1_" d="M241.7,118.85l-6.9-33.6c0,0-2.1-12.2-2-20.1c0,0-0.8-26.9-19.3-35.6c0,0-6.5-3-15-5c0,0-20.8-6-33.5-14.9
				c0,0-10.9,20.2-31,24.8c-20.1-4.6-31-24.8-31-24.8c-12.8,8.9-33.6,14.9-33.6,14.9c-8.5,2-15,5-15,5
				c-18.6,8.7-19.3,35.6-19.3,35.6c0.1,7.9-2,20.1-2,20.1l-6.8,33.6c-0.1,0.3,0,0.6,0.2,0.8c7.5,8.3,33.2,5.9,37.3,5.3
				c0.4-0.1,0.7-0.4,0.8-0.8c1.2-8.7,2.3-15.1,3.5-23.9c4.3,8,8.4,17.5,11.1,32.9c2.9,17-0.1,48-0.9,58c-2.1,27.7-3.1,32.5-4.7,52.2
				c-0.5,5.6,2.6,11,7.6,13.5c22.2,10.9,50.5,10.6,52.8,10.6s30.6,0.3,52.8-10.6c5.1-2.5,8.1-7.8,7.6-13.4
				c-1.6-19.7-2.6-24.4-4.7-52.2c-0.8-10-3.8-41-0.9-58c2.7-15.4,6.8-25,11.1-32.9c1.2,8.8,2.3,15.2,3.5,23.9
				c0.1,0.4,0.4,0.7,0.8,0.8c4.1,0.6,29.8,3,37.3-5.3C241.7,119.45,241.8,119.15,241.7,118.85z"/>
		</defs>
		<clipPath id="SVGID_2_">
			<use xlink:href="#SVGID_1_"  style="overflow:visible;"/>
		</clipPath>
		<path class="st1" d="M242.25,126.61c-3.2,2.3-14.4,8.5-38.6,4.8c-0.9-2-1.4-3-1.4-5c-0.1-0.7-1.03-5.43-0.93-5.43
			c23.6,3.8,35.2-1.6,39-4.2c0.4-0.3,0.7-0.5,0.9-0.7C241.62,115.68,242.05,126.61,242.25,126.61z M25.83,126.18
			c3.2,2.3,15.02,8.92,39.22,5.22c0.8-2,1.3-3,1.3-5c0-0.7,0.62-5.3,0.52-5.3c-23.6,3.8-35.2-1.6-39-4.2c-0.4-0.3-0.7-0.5-0.9-0.7
			C26.57,115.8,25.83,126.18,25.83,126.18z"/>
		<g class="st2">
			<path class="st3" d="M65.05,131.4c0.8-2,1.3-3,1.3-5c0-0.7,0.62-5.3,0.52-5.3c-3.01,0.48-5.82,0.82-8.45,1.03l-1.77,10.2
				C59.27,132.15,62.06,131.85,65.05,131.4z"/>
			<path class="st3" d="M209.56,121.99c-2.57-0.21-5.31-0.54-8.24-1.01c-0.1,0,0.83,4.73,0.93,5.43c0,2,0.5,3,1.4,5
				c2.73,0.42,5.29,0.7,7.69,0.89L209.56,121.99z"/>
		</g>
	</g>
</g>
<g>
	<path class="st4" d="M202.68,119.19l0.82,5.03v-0.01c0.09,0.35,0.38,0.63,0.73,0.7h-0.01c3.19,0.39,6.41,0.54,9.63,0.63
		s6.43,0.04,9.64-0.19c3.2-0.21,6.4-0.62,9.51-1.41c3.07-0.8,6.19-1.97,8.44-4.28l-0.01,0.01c0.17-0.25,0.3-0.54,0.21-0.83v-0.01
		l0,0l-0.68-3.65l0.82,3.62v-0.01c0.13,0.34-0.02,0.71-0.19,0.97l0,0l-0.01,0.01c-1.08,1.23-2.46,2.15-3.91,2.87
		c-1.46,0.72-2.99,1.27-4.56,1.7c-3.14,0.82-6.36,1.25-9.58,1.49c-3.23,0.22-6.46,0.24-9.69,0.13c-3.23-0.12-6.45-0.37-9.65-0.82
		h-0.01h-0.01c-0.43-0.11-0.78-0.47-0.87-0.9v-0.01l0,0L202.68,119.19z"/>
</g>
<g>
	<path class="st4" d="M27.09,114.93l-0.72,3.93l0,0v0.01c-0.06,0.18-0.03,0.37,0.06,0.53c0.08,0.16,0.26,0.28,0.4,0.43
		c0.29,0.29,0.59,0.56,0.92,0.8c0.31,0.26,0.65,0.49,1,0.71c0.33,0.23,0.7,0.42,1.06,0.61c1.45,0.76,3,1.31,4.57,1.74
		c3.16,0.88,6.43,1.31,9.7,1.55c3.28,0.25,6.57,0.3,9.85,0.22c3.29-0.1,6.58-0.24,9.84-0.64h-0.01c0.35-0.07,0.64-0.35,0.74-0.71
		v0.01l0.79-4.85l-0.6,4.88l0,0v0.01c-0.09,0.42-0.44,0.79-0.86,0.89h-0.01h-0.01c-3.27,0.47-6.57,0.72-9.87,0.83
		c-3.3,0.1-6.61,0.09-9.9-0.17c-3.29-0.27-6.59-0.72-9.78-1.64c-1.59-0.47-3.15-1.06-4.61-1.87c-0.36-0.21-0.73-0.4-1.06-0.65
		c-0.35-0.23-0.69-0.47-1-0.74c-0.33-0.25-0.62-0.55-0.91-0.85c-0.14-0.15-0.31-0.28-0.42-0.49c-0.11-0.2-0.12-0.45-0.05-0.67v0.01
		L27.09,114.93z"/>
</g>
<g>
	<defs>
		<path id="SVGID_3_" d="M241.72,118.85l-6.86-33.63c0,0-2.06-12.15-1.99-20.09c0,0-0.76-26.89-19.33-35.6c0,0-6.49-2.98-14.97-4.97
			c0,0-20.78-6.04-33.54-14.9c0,0-10.95,20.25-31.03,24.83c-20.08-4.59-31.03-24.83-31.03-24.83c-12.76,8.86-33.54,14.9-33.54,14.9
			c-8.48,1.99-14.97,4.97-14.97,4.97c-18.56,8.71-19.33,35.6-19.33,35.6c0.08,7.95-1.99,20.09-1.99,20.09l-6.86,33.63
			c-0.06,0.28,0.01,0.58,0.21,0.79c7.45,8.28,33.18,5.89,37.28,5.33c0.41-0.06,0.73-0.38,0.79-0.79c1.19-8.71,2.28-15.08,3.47-23.91
			c4.29,7.97,8.43,17.48,11.11,32.93c2.94,16.96-0.11,48.02-0.87,57.98c-2.12,27.72-3.07,32.48-4.68,52.17
			c-0.46,5.63,2.56,10.97,7.63,13.45c22.21,10.9,50.5,10.65,52.8,10.62c2.29,0.03,30.59,0.28,52.8-10.62
			c5.07-2.49,8.09-7.83,7.63-13.45c-1.61-19.69-2.56-24.45-4.68-52.17c-0.76-9.96-3.81-41.02-0.87-57.98
			c2.68-15.44,6.82-24.96,11.11-32.93c1.19,8.83,2.28,15.2,3.47,23.91c0.06,0.41,0.38,0.73,0.79,0.79
			c4.1,0.55,29.83,2.95,37.28-5.33C241.71,119.42,241.78,119.13,241.72,118.85z"/>
	</defs>
	<clipPath id="SVGID_4_">
		<use xlink:href="#SVGID_3_"  style="overflow:visible;"/>
	</clipPath>
	<g class="st5">
		<defs>
			<path id="SVGID_5_" d="M30.35,46.34c0,0,25.89-17.88,34.33-18.62c8.44-0.74,26.75-9.28,30.13-11.28s3.38-11.38,3.38-11.38
				S42.74,21.44,30.35,46.34z"/>
		</defs>
		<clipPath id="SVGID_6_">
			<use xlink:href="#SVGID_5_"  style="overflow:visible;"/>
		</clipPath>
		<path class="st6" d="M103.07,25.01l-25.42,1.47l-50.74-5.91l25.42-1.47L103.07,25.01z M69.04,13.46l-25.42,1.47l50.74,5.91
			l25.42-1.47L69.04,13.46z M38.91,25.88l-25.42,1.47l50.74,5.91l25.42-1.47L38.91,25.88z M31.54,33.33L6.12,34.8l50.74,5.91
			l25.42-1.47L31.54,33.33z"/>
	</g>
	<g class="st5">
		<defs>
			<path id="SVGID_7_" d="M237.13,46.18c0,0-25.89-17.88-34.33-18.62c-8.44-0.74-26.75-9.28-30.13-11.28s-3.38-11.38-3.38-11.38
				S224.74,21.28,237.13,46.18z"/>
		</defs>
		<clipPath id="SVGID_8_">
			<use xlink:href="#SVGID_7_"  style="overflow:visible;"/>
		</clipPath>
		<path class="st7" d="M215.15,18.93l25.42,1.47l-50.74,5.91l-25.42-1.47L215.15,18.93z M147.71,19.21l25.42,1.47l50.74-5.91
			l-25.42-1.47L147.71,19.21z M177.84,31.63l25.42,1.47L254,27.19l-25.42-1.47L177.84,31.63z M185.21,39.08l25.42,1.47l50.74-5.91
			l-25.42-1.47L185.21,39.08z"/>
	</g>
</g>
<g>
	<defs>
		<path id="SVGID_9_" d="M199.9,100.27c0,0,7.96-37.49,2.73-53.49s-39.05-29.2-39.05-29.2h-4.14c-5.13,6.2-13.72,14.19-25.45,16.88
			c-11.73-2.68-20.32-10.68-25.45-16.88h-4.21c0,0-33.82,13.2-39.05,29.2s2.73,53.49,2.73,53.49c0.02,0.01,0.05,0.03,0.07,0.04
			c0-0.02,0.01-0.04,0.01-0.06c0.02,0.03,0.03,0.06,0.05,0.1c21.05,11.21,18.87,44.42,10.18,90.48c-0.01,0.11-0.02,0.22-0.03,0.33
			c-2.1,27.7-3.1,32.5-4.7,52.2c-0.5,5.6,2.6,11,7.6,13.5c22.2,10.9,50.5,10.6,52.8,10.6s30.6,0.3,52.8-10.6
			c5.1-2.5,8.1-7.8,7.6-13.4c-1.6-19.69-2.6-24.4-4.7-52.16l-0.04-0.11C180.89,144.84,178.65,111.44,199.9,100.27z"/>
	</defs>
	<clipPath id="SVGID_10_">
		<use xlink:href="#SVGID_9_"  style="overflow:visible;"/>
	</clipPath>
	<g class="st8">
		<g>
			<polygon class="st9" points="42.11,11.5 140.75,48.63 143.33,33.13 44.69,-4 			"/>
			<polygon class="st10" points="39.53,27.01 138.17,64.14 140.75,48.63 42.11,11.5 			"/>
			<polygon class="st9" points="36.95,42.51 135.59,79.64 138.17,64.14 39.53,27.01 			"/>
			<polygon class="st11" points="34.37,58.01 133.01,95.14 135.59,79.64 36.95,42.51 			"/>
			<polygon class="st11" points="44.69,-4 143.33,33.13 145.91,17.63 47.27,-19.5 			"/>
			<polygon class="st9" points="31.79,73.52 130.43,110.64 133.01,95.14 34.37,58.01 			"/>
			<polygon class="st11" points="29.21,89.02 127.85,126.15 130.43,110.64 31.79,73.52 			"/>
			<polygon class="st9" points="26.63,104.52 125.27,141.65 127.85,126.15 29.21,89.02 			"/>
			<polygon class="st11" points="24.05,120.02 122.69,157.15 125.27,141.65 26.63,104.52 			"/>
			<polygon class="st9" points="21.47,135.53 120.11,172.65 122.69,157.15 24.05,120.02 			"/>
			<polygon class="st10" points="18.89,151.03 117.53,188.16 120.11,172.65 21.47,135.53 			"/>
			<polygon class="st9" points="16.31,166.53 114.95,203.66 117.53,188.16 18.89,151.03 			"/>
			<polygon class="st11" points="13.73,182.03 112.37,219.16 114.95,203.66 16.31,166.53 			"/>
			<polygon class="st9" points="11.15,197.54 109.79,234.67 112.37,219.16 13.73,182.03 			"/>
			<polygon class="st11" points="8.57,213.04 107.21,250.17 109.79,234.67 11.15,197.54 			"/>
			<polygon class="st9" points="5.99,228.54 104.63,265.67 107.21,250.17 8.57,213.04 			"/>
			<polygon class="st10" points="3.41,244.05 102.05,281.17 104.63,265.67 5.99,228.54 			"/>
		</g>
		<g>
			<polygon class="st9" points="177.51,38.82 263.72,69.1 266.3,53.6 180.09,23.32 			"/>
			<polygon class="st10" points="174.93,54.32 261.14,84.6 263.72,69.1 177.51,38.82 			"/>
			<polygon class="st9" points="172.35,69.82 258.56,100.1 261.14,84.6 174.93,54.32 			"/>
			<polygon class="st11" points="169.77,85.33 255.98,115.61 258.56,100.1 172.35,69.82 			"/>
			<polygon class="st11" points="180.09,23.32 266.3,53.6 268.88,38.09 182.67,7.81 			"/>
			<polygon class="st9" points="167.19,100.83 253.4,131.11 255.98,115.61 169.77,85.33 			"/>
			<polygon class="st11" points="164.61,116.33 250.82,146.61 253.4,131.11 167.19,100.83 			"/>
			<polygon class="st9" points="162.03,131.83 248.24,162.12 250.82,146.61 164.61,116.33 			"/>
			<polygon class="st11" points="159.45,147.34 245.66,177.62 248.24,162.12 162.03,131.83 			"/>
			<polygon class="st9" points="156.87,162.84 243.08,193.12 245.66,177.62 159.45,147.34 			"/>
			<polygon class="st10" points="154.29,178.34 240.5,208.62 243.08,193.12 156.87,162.84 			"/>
			<polygon class="st9" points="151.71,193.85 237.92,224.13 240.5,208.62 154.29,178.34 			"/>
			<polygon class="st11" points="149.13,209.35 235.34,239.63 237.92,224.13 151.71,193.85 			"/>
			<polygon class="st9" points="146.55,224.85 232.76,255.13 235.34,239.63 149.13,209.35 			"/>
			<polygon class="st11" points="143.97,240.35 230.18,270.63 232.76,255.13 146.55,224.85 			"/>
			<polygon class="st9" points="141.39,255.86 227.6,286.14 230.18,270.63 143.97,240.35 			"/>
			<polygon class="st10" points="138.81,271.36 225.02,301.64 227.6,286.14 141.39,255.86 			"/>
		</g>
		<g>
			<polygon class="st9" points="143.33,33.13 180.27,23.35 182.85,7.84 145.91,17.63 			"/>
			<polygon class="st10" points="140.75,48.63 177.69,38.85 180.27,23.35 143.33,33.13 			"/>
			<polygon class="st9" points="138.17,64.14 175.11,54.35 177.69,38.85 140.75,48.63 			"/>
			<polygon class="st11" points="135.59,79.64 172.53,69.85 175.11,54.35 138.17,64.14 			"/>
			<polygon class="st9" points="133.01,95.14 169.95,85.36 172.53,69.85 135.59,79.64 			"/>
			<polygon class="st11" points="130.43,110.64 167.37,100.86 169.95,85.36 133.01,95.14 			"/>
			<polygon class="st9" points="127.85,126.15 164.79,116.36 167.37,100.86 130.43,110.64 			"/>
			<polygon class="st11" points="125.27,141.65 162.21,131.86 164.79,116.36 127.85,126.15 			"/>
			<polygon class="st9" points="122.69,157.15 159.63,147.37 162.21,131.86 125.27,141.65 			"/>
			<polygon class="st10" points="120.11,172.65 157.05,162.87 159.63,147.37 122.69,157.15 			"/>
			<polygon class="st9" points="117.53,188.16 154.47,178.37 157.05,162.87 120.11,172.65 			"/>
			<polygon class="st11" points="114.95,203.66 151.89,193.88 154.47,178.37 117.53,188.16 			"/>
			<polygon class="st9" points="112.37,219.16 149.31,209.38 151.89,193.88 114.95,203.66 			"/>
			<polygon class="st11" points="109.79,234.67 146.73,224.88 149.31,209.38 112.37,219.16 			"/>
			<polygon class="st11" points="102.05,281.17 138.99,271.39 141.57,255.89 104.63,265.67 			"/>
			<polygon class="st9" points="107.21,250.17 144.15,240.38 146.73,224.88 109.79,234.67 			"/>
			<polygon class="st10" points="104.63,265.67 141.57,255.89 144.15,240.38 107.21,250.17 			"/>
		</g>
	</g>
</g>
<g>
	<polygon class="st12" points="155.9,29.84 166,14.74 155,6.04 114,6.24 101.1,15.44 115.2,31.64 134.3,38.84 	"/>
	<path class="st13" d="M164.7,14.54l3-6.2c0,0-33.2-17.5-67.6,0l2.4,6.4C102.6,14.74,130.5-0.66,164.7,14.54z"/>
	<path class="st14" d="M164.7,14.79l3-4.45c0,0-33.2-17.5-67.6,0l2.4,4.65C102.6,14.99,130.5-0.41,164.7,14.79z"/>
	<path class="st9" d="M167.7,8.34c-1.6,3-4.4,7.5-8.3,12c-13.3,15.3-37,15.3-50.6,0.2c-4.2-4.6-7-9.2-8.7-12.2l-4.2,5.6
		c0,0,5.4,12.4,18,19.8c13.6,8,26.1,8.4,40.5-0.1c12.5-7.4,17.6-19.7,17.6-19.7L167.7,8.34z"/>
	<path class="st15" d="M159.25,20.37c4.11-4.54,6.77-9.07,8.45-12.03l4.3,5.6c0,0-2.61,6.49-8.99,12.94L159.25,20.37z"/>
	<path class="st15" d="M105.04,26.8l3.67-6.36c-4.15-4.57-6.92-9.12-8.61-12.1l-4.2,5.6C95.9,13.94,98.72,20.41,105.04,26.8z"/>
	<path class="st16" d="M168.57,9.47l-0.87-1.13c-1.68,2.96-4.34,7.49-8.45,12.03l0.73,1.27C164.07,17.09,166.79,12.58,168.57,9.47z"
		/>
	<path class="st16" d="M107.94,21.78l0.77-1.34c-4.15-4.57-6.92-9.12-8.61-12.1l-0.91,1.22C101.07,12.8,103.92,17.25,107.94,21.78z"
		/>
</g>
<g>
	<g>
		<g>
			<path class="st11" d="M95.9,13.94c1.77,3.63,4.09,6.96,6.7,10.01c2.62,3.05,5.61,5.79,8.92,8.07c6.66,4.42,14.42,7.6,22.47,7.6
				c8.05,0.02,15.82-3.13,22.51-7.52c3.32-2.26,6.29-5.02,8.91-8.08c2.59-3.07,4.89-6.43,6.59-10.09c-1.63,3.69-3.87,7.1-6.4,10.24
				c-2.6,3.09-5.57,5.89-8.91,8.19c-3.36,2.25-6.97,4.14-10.78,5.53c-3.81,1.38-7.84,2.19-11.91,2.22c-4.07-0.02-8.1-0.86-11.9-2.25
				c-3.8-1.41-7.41-3.29-10.76-5.58C104.7,27.65,99.35,21.23,95.9,13.94z"/>
		</g>
	</g>
</g>
</svg>
