<?xml version="1.0" encoding="utf-8"?>
<!-- Generator: Adobe Illustrator 25.3.1, SVG Export Plug-In . SVG Version: 6.00 Build 0)  -->
<svg version="1.1" id="Layer_1" xmlns="http://www.w3.org/2000/svg" xmlns:xlink="http://www.w3.org/1999/xlink" x="0px" y="0px"
	 viewBox="0 0 268 268" style="enable-background:new 0 0 268 268;" xml:space="preserve">
<style type="text/css">
	.st0{clip-path:url(#SVGID_4_);fill:#1D1D1B;}
	.st1{fill-rule:evenodd;clip-rule:evenodd;fill:#EAE8EE;}
	.st2{clip-path:url(#SVGID_6_);fill:#1D1D1B;}
	.st3{clip-path:url(#SVGID_6_);}
	.st4{fill:#1D1D1B;}
	.st5{fill:#B2B2B2;}
</style>
<g>
	<g>
		<g>
			<defs>
				<path id="SVGID_1_" d="M241.7,118.9l-6.9-33.6c0,0-2.1-12.2-2-20.1c0,0-0.8-26.9-19.3-35.6c0,0-6.5-3-15-5c0,0-20.8-6-33.5-14.9
					c0,0-10.9,20.2-31,24.8c-20.1-4.6-31-24.8-31-24.8c-12.8,8.9-33.5,14.9-33.5,14.9c-8.5,2-15,5-15,5
					c-18.6,8.7-19.3,35.6-19.3,35.6c0.1,7.9-2,20.1-2,20.1l-6.9,33.6c-0.1,0.3,0,0.6,0.2,0.8c7.5,8.3,33.2,5.9,37.3,5.3
					c0.4-0.1,0.7-0.4,0.8-0.8c1.2-8.7,2.3-15.1,3.5-23.9c4.3,8,8.4,17.5,11.1,32.9c2.9,17-0.1,48-0.9,58
					c-2.1,27.7-3.1,32.5-4.7,52.2c-0.5,5.6,2.6,11,7.6,13.5c22.2,10.9,50.5,10.6,52.8,10.6c2.3,0,30.6,0.3,52.8-10.6
					c5.1-2.5,8.1-7.8,7.6-13.4c-1.6-19.7-2.6-24.4-4.7-52.2c-0.8-10-3.8-41-0.9-58c2.7-15.4,6.8-25,11.1-32.9
					c1.2,8.8,2.3,15.2,3.5,23.9c0.1,0.4,0.4,0.7,0.8,0.8c4.1,0.6,29.8,2.9,37.3-5.3C241.7,119.4,241.8,119.1,241.7,118.9z"/>
			</defs>
			<clipPath id="SVGID_2_">
				<use xlink:href="#SVGID_1_"  style="overflow:visible;"/>
			</clipPath>
		</g>
	</g>
</g>
<g>
	<defs>
		<path id="SVGID_3_" d="M241.82,118.92l-6.9-33.6c0,0-2.1-12.2-2-20.1c0,0-0.8-26.9-19.3-35.6c0,0-6.5-3-15-5c0,0-20.8-6-33.5-14.9
			c0,0-10.9,20.2-31,24.8c-20.1-4.6-31-24.8-31-24.8c-12.8,8.9-33.6,14.9-33.6,14.9c-8.5,2-15,5-15,5c-18.6,8.7-19.3,35.6-19.3,35.6
			c0.1,7.9-2,20.1-2,20.1l-6.9,33.6c-0.1,0.3,0,0.6,0.2,0.8c7.5,8.3,33.2,5.9,37.3,5.3c0.4-0.1,0.7-0.4,0.8-0.8
			c1.2-8.7,2.3-15.1,3.5-23.9c4.3,8,8.4,17.5,11.1,32.9c2.9,17-0.1,48-0.9,58c-2.1,27.7-3.1,32.5-4.7,52.2c-0.5,5.6,2.6,11,7.6,13.5
			c22.2,10.9,50.5,10.6,52.8,10.6c2.3,0,30.6,0.3,52.8-10.6c5.1-2.5,8.1-7.8,7.6-13.4c-1.6-19.7-2.6-24.4-4.7-52.2
			c-0.8-10-3.8-41-0.9-58c2.7-15.4,6.8-25,11.1-32.9c1.2,8.8,2.3,15.2,3.5,23.9c0.1,0.4,0.4,0.7,0.8,0.8c4.1,0.6,29.8,3,37.3-5.3
			C241.82,119.52,241.92,119.22,241.82,118.92z"/>
	</defs>
	<use xlink:href="#SVGID_3_"  style="overflow:visible;fill:#EAE8EE;"/>
	<clipPath id="SVGID_4_">
		<use xlink:href="#SVGID_3_"  style="overflow:visible;"/>
	</clipPath>
	<path class="st0" d="M77.81,25.12L62.24,133.96l-0.82-0.12L76.99,25L77.81,25.12z M66.18,23.46l-15.6,109.06l0.82,0.12l15.6-109.06
		L66.18,23.46z M44.54,20.36L29,129.02l0.82,0.12L45.36,20.48L44.54,20.36z M55.36,21.91l-15.6,109.06l0.79,0.3L56.18,22.03
		L55.36,21.91z M190.19,24.58l15.57,108.84l0.82-0.12L191.01,24.46L190.19,24.58z M201.01,23.03l15.6,109.06l0.82-0.12l-15.6-109.06
		L201.01,23.03z M222.64,19.93l15.54,108.66l0.82-0.12L223.45,19.82L222.64,19.93z M211.82,21.48l15.63,109.24l0.79-0.3
		l-15.6-109.06L211.82,21.48z"/>
</g>
<path class="st1" d="M206.4,26.87c-2.27-0.77-4.96-1.58-7.9-2.27c0,0-14.19-4.1-26.28-10.54L134.3,43.3L95.83,14.02
	C83.68,20.49,69.5,24.6,69.5,24.6c-4.36,1.03-8.19,2.31-10.89,3.33c1.42,3.62,8.29,39.94,9.89,72.77c0,0,7.5,11.5,11.1,33.4
	c2.8,17-0.1,48-0.9,58c-2.1,27.7-3.1,32.5-4.7,52.2c-0.19,2.17,0.16,4.31,0.95,6.26c1.32,2.69,3.49,4.96,6.25,6.34
	c22.2,10.9,50.5,10.6,52.8,10.6c2.3,0,30.6,0.3,52.8-10.6c5.1-2.5,8.1-7.8,7.6-13.4c-1.6-19.7-2.6-24.4-4.7-52.2
	c-0.8-10-3.8-41-0.9-58c2.7-15.4,6.8-25,11.1-32.9c0.02,0.14,0.04,0.26,0.06,0.4c0.16-0.28,0.24-0.46,0.24-0.5
	c1.6-32.9,8.5-68.6,9.8-72.1C209.51,27.99,208.22,27.52,206.4,26.87z"/>
<g>
	<defs>
		<path id="SVGID_5_" d="M206.4,26.87c-2.27-0.77-4.96-1.58-7.9-2.27c0,0-14.19-4.1-26.28-10.54l-0.24-0.08L134.3,43.3L95.83,14.02
			C83.68,20.49,69.5,24.6,69.5,24.6c-4.36,1.03-8.19,2.31-10.89,3.33c1.42,3.62,8.29,39.94,9.89,72.77c0,0,7.5,11.5,11.1,33.4
			c2.8,17-0.1,48-0.9,58c-2.1,27.7-3.1,32.5-4.7,52.2c-0.19,2.17,0.16,4.31,0.95,6.26c1.32,2.69,3.49,4.96,6.25,6.34
			c22.2,10.9,50.5,10.6,52.8,10.6c2.3,0,30.6,0.3,52.8-10.6c5.1-2.5,8.1-7.8,7.6-13.4c-1.6-19.7-2.6-24.4-4.7-52.2
			c-0.8-10-3.8-41-0.9-58c2.7-15.4,6.8-25,11.1-32.9c0.02,0.14,0.04,0.26,0.06,0.4c0.16-0.28,0.24-0.46,0.24-0.5
			c1.6-32.9,8.5-68.6,9.8-72.1C209.51,27.99,208.22,27.52,206.4,26.87z"/>
	</defs>
	<use xlink:href="#SVGID_5_"  style="overflow:visible;fill-rule:evenodd;clip-rule:evenodd;fill:#EAE8EE;"/>
	<clipPath id="SVGID_6_">
		<use xlink:href="#SVGID_5_"  style="overflow:visible;"/>
	</clipPath>
	<path class="st2" d="M212,25.5c-2.7-0.9-6.4-2.1-10.4-3c-1.3-0.4-20.9-5.8-33-13.7l-1.7,3.5c13.2,8.7,33.8,14.2,34.7,14.5h0.1
		c3.68,1.1,5.91,1.97,8.11,2.57L212,25.5z"/>
	<g class="st3">
		<g>
			<path class="st4" d="M208.2,31c-2.5-0.8-5.5-1.6-8.8-2.3c-1.3-0.4-20.9-5.8-33-13.7l-0.8,1.6c13.2,8.7,33.8,14.2,34.7,14.5h0.1
				c2.4,0.5,4.7,1.1,6.6,1.7C207.4,32.2,207.9,31.5,208.2,31z"/>
		</g>
	</g>
	<path class="st2" d="M32.8,55.2H30c0.1-1.2,2.9-19.6,23-28.5c0.3-0.1,6.9-3,15.5-4.8c1.3-0.4,20.9-5.8,33-13.7l1.7,3.5
		C89.9,19.6,70.1,26,68.5,26.4h-0.1c-8.3,2.5-14.5,4.4-14.6,4.4C40,36.9,38.3,44.6,37.7,51.2C37.5,54.2,34.2,55.3,32.8,55.2z"/>
	<path class="st2" d="M21.7,61.5l-3.9-4.9c0.1-1.2,16.4-14.2,36.5-23.1c0.3-0.1,6.9-3,15.6-4.8c1.3-0.4,20.9-5.8,33-13.7l-0.1,1.8
		C89.5,25.5,68.9,31,68,31.2h-0.1c-8.2,1.7-14.5,4.4-14.6,4.4c-13.8,6.1-26.1,15.2-26.7,21.8C26.4,60.5,23.1,61.6,21.7,61.5z"/>
	<g class="st3">
		<g>
			<rect x="152.24" y="14.84" class="st4" width="0.92" height="252.66"/>
			<rect x="164.48" y="14.84" class="st4" width="0.92" height="250.75"/>
			<polygon class="st4" points="201.17,29.55 201.17,265.59 202.1,280.3 202.1,29.55 			"/>
			<rect x="188.94" y="27.13" class="st4" width="0.92" height="238.46"/>
			<rect x="176.71" y="21.45" class="st4" width="0.92" height="244.14"/>
			<rect x="140.01" y="14.84" class="st4" width="0.92" height="253.16"/>
			<rect x="78.85" y="27" class="st4" width="0.92" height="238.59"/>
			<rect x="91.08" y="22.1" class="st4" width="0.92" height="243.5"/>
			<rect x="66.61" y="30.23" class="st4" width="0.92" height="235.37"/>
			<rect x="115.54" y="14.84" class="st4" width="0.92" height="252.22"/>
			<polygon class="st4" points="127.78,14.84 127.78,268 128.7,268.42 128.7,14.84 			"/>
			<rect x="103.31" y="14.84" class="st4" width="0.92" height="250.75"/>
		</g>
	</g>
</g>
<g>
	<polygon class="st5" points="157.21,32.99 169.26,17.26 155.54,5.9 114.54,6.09 98.42,17.23 111.2,33.34 133.87,43.3 	"/>
	<path d="M164.71,14.55l2.94-6.18c0,0-33.16-17.55-67.57,0l2.54,6.42C102.62,14.78,130.49-0.68,164.71,14.55z"/>
	<path class="st4" d="M109.58,20.84c5.4,6.83,12.52,17.29,12.52,17.29l-11.13-4.62L95.83,13.97l4.25-5.61
		C100.08,8.36,104.18,14.01,109.58,20.84z M156.71,23.24c-5.09,7.1-10.57,14.96-10.88,14.89l11.63-5.07l14.52-19.08l-4.32-5.63
		C167.65,8.36,161.95,15.93,156.71,23.24z"/>
</g>
</svg>
