<?xml version="1.0" encoding="utf-8"?>
<!-- Generator: Adobe Illustrator 25.3.1, SVG Export Plug-In . SVG Version: 6.00 Build 0)  -->
<svg version="1.1" id="Layer_1" xmlns="http://www.w3.org/2000/svg" xmlns:xlink="http://www.w3.org/1999/xlink" x="0px" y="0px"
	 viewBox="0 0 268 268" style="enable-background:new 0 0 268 268;" xml:space="preserve">
<style type="text/css">
	.st0{fill-rule:evenodd;clip-rule:evenodd;fill:#EEEEEE;}
	.st1{fill-rule:evenodd;clip-rule:evenodd;fill:#AC0D12;}
	.st2{clip-path:url(#SVGID_4_);fill:#005789;}
	.st3{clip-path:url(#SVGID_4_);}
	.st4{fill:#005789;}
	.st5{fill:#84110A;}
	.st6{fill:#06263F;}
	.st7{fill:#AE1A18;}
	.st8{clip-path:url(#SVGID_6_);}
	.st9{fill:#AC0D12;}
</style>
<path class="st0" d="M241.7,118.9l-6.9-33.6c0,0-2.1-12.2-2-20.1c0,0-0.8-26.9-19.3-35.6c0,0-6.5-3-15-5c0,0-20.8-6-33.5-14.9
	c0,0-10.9,20.2-31,24.8c-20.1-4.6-31-24.8-31-24.8c-12.8,8.9-33.5,14.9-33.5,14.9c-8.5,2-15,5-15,5c-18.6,8.7-19.3,35.6-19.3,35.6
	c0.1,7.9-2,20.1-2,20.1l-6.9,33.6c-0.1,0.3,0,0.6,0.2,0.8c7.5,8.3,33.2,5.9,37.3,5.3c0.4-0.1,0.7-0.4,0.8-0.8
	c1.2-8.7,2.3-15.1,3.5-23.9c4.3,8,8.4,17.5,11.1,32.9c2.9,17-0.1,48-0.9,58c-2.1,27.7-3.1,32.5-4.7,52.2c-0.5,5.6,2.6,11,7.6,13.5
	c22.2,10.9,50.5,10.6,52.8,10.6c2.3,0,30.6,0.3,52.8-10.6c5.1-2.5,8.1-7.8,7.6-13.4c-1.6-19.7-2.6-24.4-4.7-52.2
	c-0.8-10-3.8-41-0.9-58c2.7-15.4,6.8-25,11.1-32.9c1.2,8.8,2.3,15.2,3.5,23.9c0.1,0.4,0.4,0.7,0.8,0.8c4.1,0.6,29.8,2.9,37.3-5.3
	C241.7,119.4,241.8,119.1,241.7,118.9z"/>
<g>
	<g>
		<g>
			<defs>
				<path id="SVGID_1_" d="M241.7,118.9l-6.9-33.6c0,0-2.1-12.2-2-20.1c0,0-0.8-26.9-19.3-35.6c0,0-6.5-3-15-5c0,0-20.8-6-33.5-14.9
					c0,0-10.9,20.2-31,24.8c-20.1-4.6-31-24.8-31-24.8c-12.8,8.9-33.5,14.9-33.5,14.9c-8.5,2-15,5-15,5
					c-18.6,8.7-19.3,35.6-19.3,35.6c0.1,7.9-2,20.1-2,20.1l-6.9,33.6c-0.1,0.3,0,0.6,0.2,0.8c7.5,8.3,33.2,5.9,37.3,5.3
					c0.4-0.1,0.7-0.4,0.8-0.8c1.2-8.7,2.3-15.1,3.5-23.9c4.3,8,8.4,17.5,11.1,32.9c2.9,17-0.1,48-0.9,58
					c-2.1,27.7-3.1,32.5-4.7,52.2c-0.5,5.6,2.6,11,7.6,13.5c22.2,10.9,50.5,10.6,52.8,10.6c2.3,0,30.6,0.3,52.8-10.6
					c5.1-2.5,8.1-7.8,7.6-13.4c-1.6-19.7-2.6-24.4-4.7-52.2c-0.8-10-3.8-41-0.9-58c2.7-15.4,6.8-25,11.1-32.9
					c1.2,8.8,2.3,15.2,3.5,23.9c0.1,0.4,0.4,0.7,0.8,0.8c4.1,0.6,29.8,2.9,37.3-5.3C241.7,119.4,241.8,119.1,241.7,118.9z"/>
			</defs>
			<clipPath id="SVGID_2_">
				<use xlink:href="#SVGID_1_"  style="overflow:visible;"/>
			</clipPath>
		</g>
	</g>
</g>
<path class="st1" d="M206.4,26.9c-2.3-0.8-5-1.6-7.9-2.3c0,0-14.2-4.1-26.3-10.5l-37.9,29.2L95.8,14c-12.1,6.5-26.3,10.6-26.3,10.6
	c-4.4,1-8.2,2.3-10.9,3.3c1.4,3.6,8.3,39.9,9.9,72.8c0,0,7.5,11.5,11.1,33.4c2.8,17-0.1,48-0.9,58c-2.1,27.7-3.1,32.5-4.7,52.2
	c-0.2,2.2,0.2,4.3,0.9,6.3c1.3,2.7,3.5,5,6.3,6.3c22.2,10.9,50.5,10.6,52.8,10.6c2.3,0,30.6,0.3,52.8-10.6c5.1-2.5,8.1-7.8,7.6-13.4
	c-1.6-19.7-2.6-24.4-4.7-52.2c-0.8-10-3.8-41-0.9-58c2.7-15.4,6.8-25,11.1-32.9c0,0.1,0,0.3,0.1,0.4c0.2-0.3,0.2-0.5,0.2-0.5
	c1.6-32.9,8.5-68.6,9.8-72.1C209.5,28,208.2,27.5,206.4,26.9z"/>
<g>
	<defs>
		<path id="SVGID_3_" d="M206.4,26.9c-2.3-0.8-5-1.6-7.9-2.3c0,0-14.2-4.1-26.3-10.5L172,14l-37.7,29.3L95.8,14
			c-12.1,6.5-26.3,10.6-26.3,10.6c-4.4,1-8.2,2.3-10.9,3.3c1.4,3.6,8.3,39.9,9.9,72.8c0,0,7.5,11.5,11.1,33.4c2.8,17-0.1,48-0.9,58
			c-2.1,27.7-3.1,32.5-4.7,52.2c-0.2,2.2,0.2,4.3,0.9,6.3c1.3,2.7,3.5,5,6.3,6.3c22.2,10.9,50.5,10.6,52.8,10.6
			c2.3,0,30.6,0.3,52.8-10.6c5.1-2.5,8.1-7.8,7.6-13.4c-1.6-19.7-2.6-24.4-4.7-52.2c-0.8-10-3.8-41-0.9-58
			c2.7-15.4,6.8-25,11.1-32.9c0,0.1,0,0.3,0.1,0.4c0.2-0.3,0.2-0.5,0.2-0.5c1.6-32.9,8.5-68.6,9.8-72.1
			C209.5,28,208.2,27.5,206.4,26.9z"/>
	</defs>
	<clipPath id="SVGID_4_">
		<use xlink:href="#SVGID_3_"  style="overflow:visible;"/>
	</clipPath>
	<path class="st2" d="M212,25.5c-2.7-0.9-6.4-2.1-10.4-3c-1.3-0.4-20.9-5.8-33-13.7l-1.7,3.5c13.2,8.7,33.8,14.2,34.7,14.5h0.1
		c3.7,1.1,5.9,2,8.1,2.6L212,25.5z"/>
	<g class="st3">
		<g>
			<path class="st4" d="M208.2,31c-2.5-0.8-5.5-1.6-8.8-2.3c-1.3-0.4-20.9-5.8-33-13.7l-0.8,1.6c13.2,8.7,33.8,14.2,34.7,14.5h0.1
				c2.4,0.5,4.7,1.1,6.6,1.7C207.4,32.2,207.9,31.5,208.2,31z"/>
		</g>
	</g>
	<path class="st2" d="M32.8,55.2H30c0.1-1.2,2.9-19.6,23-28.5c0.3-0.1,6.9-3,15.5-4.8c1.3-0.4,20.9-5.8,33-13.7l1.7,3.5
		C89.9,19.6,70.1,26,68.5,26.4h-0.1c-8.3,2.5-14.5,4.4-14.6,4.4C40,36.9,38.3,44.6,37.7,51.2C37.5,54.2,34.2,55.3,32.8,55.2z"/>
	<path class="st2" d="M21.7,61.5l-3.9-4.9c0.1-1.2,16.4-14.2,36.5-23.1c0.3-0.1,6.9-3,15.6-4.8c1.3-0.4,20.9-5.8,33-13.7l-0.1,1.8
		C89.5,25.5,68.9,31,68,31.2h-0.1c-8.2,1.7-14.5,4.4-14.6,4.4c-13.8,6.1-26.1,15.2-26.7,21.8C26.4,60.5,23.1,61.6,21.7,61.5z"/>
</g>
<g>
	<polygon class="st5" points="157.2,33 169.3,17.3 155.5,5.9 114.5,6.1 98.4,17.2 111.2,33.3 133.9,43.3 	"/>
	<path class="st6" d="M164.7,14.5l2.9-6.2c0,0-33.2-17.5-67.6,0l2.5,6.4C102.6,14.8,130.5-0.7,164.7,14.5z"/>
	<path class="st5" d="M164.7,16.6l2.9-6.2c0,0-33.2-17.5-67.6,0l2.5,6.4C102.6,16.8,130.5,1.3,164.7,16.6z"/>
	<path class="st6" d="M164.7,19.4l2.9-6.2c0,0-33.2-17.5-67.6,0l2.5,6.4C102.6,19.6,130.5,4.2,164.7,19.4z"/>
	<path class="st7" d="M109.6,20.8c5.4,6.8,12.5,17.3,12.5,17.3L111,33.5L95.8,14l4.2-5.6C100.1,8.4,104.2,14,109.6,20.8z
		 M156.7,23.2c-5.1,7.1-10.6,15-10.9,14.9l11.6-5.1L172,14l-4.3-5.6C167.7,8.4,162,15.9,156.7,23.2z"/>
	<g>
		<g>
			<g>
				<path class="st4" d="M100.1,8.4l-1,1.3c0.9,1.3,4.6,6.3,9.3,12.1c3.9,5,8.7,11.8,11.1,15.2l2.6,1.1c0,0-7.1-10.5-12.5-17.3
					C104.2,14,100.1,8.4,100.1,8.4z"/>
			</g>
			<g>
				<path class="st4" d="M158.1,23.9c4.4-6.1,9.1-12.4,10.5-14.3l-1-1.3c0,0-5.7,7.6-10.9,14.9c-5.1,7.1-10.6,15-10.9,14.9l3-1.3
					C150.9,34,154.6,28.8,158.1,23.9z"/>
			</g>
		</g>
	</g>
</g>
<g>
	<path class="st5" d="M111.2,36.6c3.9,1.6,7.7,3.2,11.5,4.9l11.5,5l-0.2,0l11.6-5.2c3.9-1.7,7.7-3.4,11.6-5
		c-3.8,1.8-7.6,3.6-11.5,5.4l-11.5,5.3l-0.1,0l-0.1,0l-11.4-5.1C118.8,40.1,115,38.4,111.2,36.6z"/>
</g>
<g>
	<g>
		<g>
			<g>
				<g>
					<defs>
						<path id="SVGID_5_" d="M241.8,118.9l-6.9-33.6c0,0-2.1-12.2-2-20.1c0,0-0.8-26.9-19.3-35.6c0,0-6.5-3-15-5
							c0,0-20.8-6-33.5-14.9c0,0-10.9,20.2-31,24.8c-20.1-4.6-31-24.8-31-24.8c-12.8,8.9-33.6,14.9-33.6,14.9c-8.5,2-15,5-15,5
							c-18.6,8.7-19.3,35.6-19.3,35.6c0.1,7.9-2,20.1-2,20.1l-6.9,33.6c-0.1,0.3,0,0.6,0.2,0.8c7.5,8.3,33.2,5.9,37.3,5.3
							c0.4-0.1,0.7-0.4,0.8-0.8c1.2-8.7,2.3-15.1,3.5-23.9c4.3,8,8.4,17.5,11.1,32.9c2.9,17-0.1,48-0.9,58
							c-2.1,27.7-3.1,32.5-4.7,52.2c-0.5,5.6,2.6,11,7.6,13.5c22.2,10.9,50.5,10.6,52.8,10.6c2.3,0,30.6,0.3,52.8-10.6
							c5.1-2.5,8.1-7.8,7.6-13.4c-1.6-19.7-2.6-24.4-4.7-52.2c-0.8-10-3.8-41-0.9-58c2.7-15.4,6.8-25,11.1-32.9
							c1.2,8.8,2.3,15.2,3.5,23.9c0.1,0.4,0.4,0.7,0.8,0.8c4.1,0.6,29.8,3,37.3-5.3C241.8,119.5,241.9,119.2,241.8,118.9z"/>
					</defs>
					<clipPath id="SVGID_6_">
						<use xlink:href="#SVGID_5_"  style="overflow:visible;"/>
					</clipPath>
					<g class="st8">
						<g>
							<g>
								<path class="st9" d="M27,111.5c0,0,4.4,7,20.3,7s19.1-1.1,19.9-1.3c0,0-0.9,8-2.1,8.7c-1.3,0.7-24.3,1.9-31.9-1
									c-7.6-2.8-7.7-4.1-7.6-5.5C25.6,118.1,27,111.5,27,111.5z"/>
								<path class="st9" d="M241.4,110.2c0,0-4.6,7.7-20.5,7.7s-19.1-1.1-19.9-1.3c0,0,1,8.6,2.2,9.3c1.3,0.7,24.3,1.9,31.9-1
									c7.6-2.8,7.7-4.1,7.6-5.5C242.7,118.1,241.4,110.2,241.4,110.2z"/>
							</g>
						</g>
						<path class="st4" d="M26.4,118c0,0,2.8,5.6,17.2,6.6s23.2-0.9,23.2-0.9s0.1,2.5-1.5,2.4c-1.6-0.1-24.4,2.2-33.5-2.3
							C23.5,119.6,26.4,118,26.4,118z"/>
						<path class="st4" d="M241.8,118c0,0-2.8,5.6-17.2,6.6s-23.2-0.9-23.2-0.9s-0.1,2.5,1.5,2.4s24.4,2.2,33.5-2.3
							C244.8,119.6,241.8,118,241.8,118z"/>
					</g>
				</g>
			</g>
		</g>
	</g>
</g>
</svg>
