<?xml version="1.0" encoding="utf-8"?>
<!-- Generator: Adobe Illustrator 24.3.0, SVG Export Plug-In . SVG Version: 6.00 Build 0)  -->
<svg version="1.1" id="Layer_1" xmlns="http://www.w3.org/2000/svg" xmlns:xlink="http://www.w3.org/1999/xlink" x="0px" y="0px"
	 viewBox="0 0 268 268" style="enable-background:new 0 0 268 268;" xml:space="preserve">
<style type="text/css">
	.st0{fill:#FFFFFF;}
	.st1{fill:#FFFFFF;stroke:#00529F;stroke-width:8;stroke-miterlimit:10;}
	.st2{fill:#FFFFFF;stroke:#00529F;stroke-miterlimit:10;}
	.st3{fill:#00529F;}
	.st4{fill:#EFB310;stroke:#00529F;stroke-width:3;stroke-miterlimit:10;}
	.st5{fill:none;stroke:#00529F;stroke-width:2;stroke-miterlimit:10;}
</style>
<circle class="st0" cx="134" cy="133.7" r="132.6"/>
<circle class="st1" cx="134" cy="133.7" r="125.5"/>
<circle class="st2" cx="134" cy="133.7" r="85.7"/>
<circle class="st3" cx="134" cy="133.7" r="80.5"/>
<path class="st0" d="M107.5,89.5c-0.7-0.8-6.2-16.2,11.7-24.8S135,49.1,135,49.1s0.6,10.3,14.9,14.9c14.3,4.7,12.5,26.5,12.5,26.5
	S139.6,128.8,107.5,89.5z"/>
<path class="st3" d="M116.4,82.1c0,0,0.3-9.3,10-15.2c0,0,2.2,0.5,3.1-3.8s1.7,0.9,1.2,1c-0.5,0.2-1.7,5.2-5.5,8.3
	C121.4,75.6,118.5,77.5,116.4,82.1z"/>
<path class="st3" d="M153,82.1c0,0-0.3-9.3-10-15.2c0,0-2.2,0.5-3.1-3.8s-1.7,0.9-1.2,1c0.5,0.2,1.7,5.2,5.5,8.3
	C148,75.6,150.9,77.5,153,82.1z"/>
<path class="st0" d="M165.5,102.3c0.4-0.9,11.6-12.9,27.4-0.8s21,7,21,7s-8.9,5.2-6.6,20c2.3,14.9-18,23.1-18,23.1
	S145,148.8,165.5,102.3L165.5,102.3z"/>
<path class="st3" d="M176.1,107c0,0,8.5-3.9,18,2.1c0,0,0.6,2.2,4.8,1.1c4.2-1.2,0,1.9-0.4,1.5s-5.4,0.8-9.9-1.2
	C184.2,108.5,181.2,106.7,176.1,107L176.1,107z"/>
<path class="st3" d="M192.7,139.6c0,0,8.1-4.5,9-15.8c0,0-1.5-1.8,2-4.5s-1.5-1.1-1.5-0.6c0.1,0.5-3.8,3.9-4.9,8.7
	C196.2,132.1,195.9,135.6,192.7,139.6z"/>
<path class="st0" d="M101.7,102.3c-0.4-0.9-11.6-12.9-27.4-0.8s-21,7-21,7s8.9,5.2,6.6,20c-2.3,14.9,18,23.1,18,23.1
	S122.2,148.8,101.7,102.3z"/>
<path class="st3" d="M91,107c0,0-8.5-3.9-18,2.1c0,0-0.6,2.2-4.8,1.1c-4.2-1.2,0,1.9,0.4,1.5s5.4,0.8,9.9-1.2S85.9,106.7,91,107z"/>
<path class="st3" d="M74.5,139.6c0,0-8.1-4.5-9-15.8c0,0,1.5-1.8-2-4.5s1.5-1.1,1.5-0.6c-0.1,0.5,3.8,3.9,4.9,8.7
	C70.9,132.1,71.3,135.6,74.5,139.6z"/>
<path class="st0" d="M134.8,188.4c-0.1,1,4.6,16.7,24.2,13c19.5-3.7,21.9,3.2,21.9,3.2s-5.6-8.6,3.1-20.8s-5.7-28.8-5.7-28.8
	S137.3,137.7,134.8,188.4z"/>
<path class="st3" d="M146.4,189.1c0,0,5.8,7.3,17.1,6.2c0,0,1.5-1.7,4.7,1.2c3.3,3,0.9-1.7,0.4-1.5s-4.5-3.1-9.4-3.4
	C154.4,191.3,150.9,191.6,146.4,189.1z"/>
<path class="st3" d="M175.8,167.3c0,0,5.3,7.7,1,18.1c0,0-2.1,0.9-0.2,4.9s-1.9,0.3-1.6-0.1s-1.7-5.2-0.5-9.9
	S176.9,172.3,175.8,167.3z"/>
<path class="st0" d="M133.9,188.4c0.1,1-4.6,16.7-24.2,13c-19.5-3.7-21.9,3.2-21.9,3.2s5.6-8.6-3.1-20.8s5.7-28.8,5.7-28.8
	S131.4,137.7,133.9,188.4z"/>
<path class="st3" d="M122.3,189.1c0,0-5.8,7.3-17.1,6.2c0,0-1.5-1.7-4.7,1.2c-3.3,3-0.9-1.7-0.4-1.5s4.5-3.1,9.4-3.4
	S117.9,191.6,122.3,189.1z"/>
<path class="st3" d="M92.9,167.3c0,0-5.3,7.7-1,18.1c0,0,2.1,0.9,0.2,4.9s1.9,0.3,1.6-0.1s1.7-5.2,0.5-9.9S91.8,172.3,92.9,167.3z"
	/>
<path class="st0" d="M188.1,128.9c-0.6-1.9-6.7-4.9-6.7-4.9l1.2-4.7c0,0,2.1-3.4,2.7-6.2s3.1-15.2,4.4-17.3s0.5-5.9,0.8-7.5
	s1.2-3.7,1.4-5.6s-7.1-15.1-7.1-15.1L170,76.5c0,0-10.5,9.6-12.4,11.2c-1.8,1.6-3.4,1.8-3.4,1.8c-13.1-8.8-28.7-7.9-40,0.2
	c0,0-1.5-0.1-3.4-1.8c-1.8-1.6-15.2-14.4-15.2-14.4l-12.1-5.7c0,0-7,13-6.9,14.9c0.2,1.9,1.1,4,1.4,5.6s-0.6,5.5,0.8,7.5
	c1.4,2.1,3.8,14.5,4.4,17.3s2.7,6.2,2.7,6.2l1.2,4.7c0,0-6.1,3-6.7,4.9s-3.5,3-3.5,3s-0.2,1.9,0.6,2.5s4,3.8,4,5.8
	c0,1.9-0.5,2.2,0,2.8s5.2,3.1,6.3,6.5s6.3,13.1,8.2,14.3c2,1.2,19.7,13.7,21.1,19.3c0,0-0.6,6.9,1.5,8.3c2.1,1.3,5,5.8,9.5,5.8h12.4
	c4.4,0,7.3-4.4,9.5-5.8c2.1-1.3,1.5-8.3,1.5-8.3c1.4-5.6,19.1-18.2,21.1-19.3c2-1.2,7.2-10.9,8.2-14.3c1.1-3.4,5.8-5.9,6.3-6.5
	s0-0.9,0-2.8s3.2-5.2,4-5.8s0.6-2.5,0.6-2.5S188.7,130.8,188.1,128.9z"/>
<g>
	<path class="st4" d="M182.7,129.5c-0.6-1.8-6.1-4.6-6.1-4.6l1.1-4.4c0,0,1.9-3.2,2.5-5.8s2.8-14.2,4-16.2c1.2-1.9,0.4-5.5,0.7-7.1
		c0.3-1.5,1.1-3.5,1.2-5.3s-4.6-12.2-4.6-12.2l-13.6,8.2c0,0-9.5,9-11.2,10.5s-3,1.7-3,1.7c-11.8-8.3-29.5-7.5-39.7,0
		c0,0-1.4-0.1-3-1.7c-1.7-1.5-11.2-10.5-11.2-10.5l-13.6-8.2c0,0-4.7,10.4-4.6,12.2s1,3.7,1.2,5.3c0.3,1.5-0.6,5.1,0.7,7.1
		c1.2,1.9,3.5,13.6,4,16.2c0.6,2.6,2.5,5.8,2.5,5.8l1.1,4.4c0,0-5.5,2.8-6.1,4.6c-0.6,1.8-3.2,2.8-3.2,2.8s-0.1,1.8,0.6,2.4
		s3.6,3.6,3.6,5.4s-0.4,2.1,0,2.6c0.4,0.6,4.7,2.9,5.7,6.1s5.7,12.3,7.5,13.4s17.8,12.9,19.1,18.1c0,0-0.6,6.5,1.4,7.7
		c1.9,1.2,4.6,5.4,8.6,5.4h11.2c4,0,6.6-4.1,8.6-5.4c1.9-1.2,1.4-7.7,1.4-7.7c1.2-5.3,17.3-17,19.1-18.1s6.5-10.2,7.5-13.4
		s5.3-5.5,5.7-6.1s0-0.8,0-2.6s2.9-4.8,3.6-5.4s0.6-2.4,0.6-2.4S183.3,131.3,182.7,129.5z"/>
	<path class="st5" d="M157.9,103.6c0.3,0.5,10.3,13.7,12.9,12.2s7.4-15.1,8.1-17.3s-1.2-9.3,0.9-14.7s-13.4,7.4-14.9,9.8
		s-1.7,7-2.6,7.9C161.4,102.2,157.9,103.6,157.9,103.6z"/>
	<path class="st5" d="M128.5,181c0,0,2,5.9,4.2,6.1s6.1,0.7,7.4-5.5C141.4,175.2,126.6,176.7,128.5,181L128.5,181z"/>
	<path class="st5" d="M149.8,179.2c0,0-1.8-7.7-4.1-8.9c-2.2-1.1-5.9-31-5.9-31.5s-0.8-6.4,6.5-9.9c8-3.8,19.9,1,22.1-0.6"/>
	<path class="st5" d="M150.9,132c0,0-2.2,1.8-2.2,2.4s2.6,3.5,4.4,2.2s1.1-4.1,1.1-4.1L150.9,132z"/>
	<path class="st5" d="M159.4,134.2c0,0-1.1,4.4-3.3,5.2c-2.2,0.7-6.3,0.2-7.2,2"/>
	<path class="st5" d="M148.4,167.4c0,0,0.7-1.8,0.2-5.2c-0.6-3.3-3.1-12.4-3-14c0.2-1.7,1.7-4.4,1.7-4.4"/>
	<path class="st5" d="M175.8,149.5c0,0-6.3-2.8-11.8,4.4s-5.5,3.5-5.5,3.5"/>
	<path class="st5" d="M143.6,97.8c-1.5,0.7-6.6,6.8-6.6,6.8s-0.2,0.6-0.2,1.5"/>
	<path class="st5" d="M118.3,179.2c0,0,1.8-7.7,4.1-8.9c2.2-1.1,5.9-31,5.9-31.5s1.1-5.6-5.7-9.1c-5.8-2.9-20.7,0.2-22.9-1.5"/>
	<path class="st5" d="M117.2,132c0,0,2.2,1.8,2.2,2.4s-2.6,3.5-4.4,2.2s-1.1-4.1-1.1-4.1L117.2,132z"/>
	<path class="st5" d="M108.7,134.2c0,0,1.1,4.4,3.3,5.2c2.2,0.7,6.3,0.2,7.2,2"/>
	<path class="st5" d="M119.8,167.4c0,0-0.7-1.8-0.2-5.2c0.6-3.3,3.1-12.4,3-14c-0.2-1.7-1.7-4.4-1.7-4.4"/>
	<path class="st5" d="M92.3,149.5c0,0,6.3-2.8,11.8,4.4s5.5,3.5,5.5,3.5"/>
	<path class="st5" d="M124.6,97.8c1.5,0.7,6.6,6.8,6.6,6.8s0.2,0.6,0.2,1.5"/>
</g>
<circle class="st3" cx="30.2" cy="134.4" r="3.7"/>
<circle class="st3" cx="237.7" cy="134.4" r="3.7"/>
</svg>
