<?xml version="1.0" encoding="utf-8"?>
<!-- Generator: Adobe Illustrator 25.3.1, SVG Export Plug-In . SVG Version: 6.00 Build 0)  -->
<svg version="1.1" id="Layer_1" xmlns="http://www.w3.org/2000/svg" xmlns:xlink="http://www.w3.org/1999/xlink" x="0px" y="0px"
	 viewBox="0 0 268 268" style="enable-background:new 0 0 268 268;" xml:space="preserve">
<style type="text/css">
	.st0{fill:#F3F2F3;}
	.st1{clip-path:url(#SVGID_2_);}
	.st2{fill:none;stroke:#BE191E;stroke-width:9;stroke-miterlimit:10;}
	.st3{fill:none;stroke:#BE191E;stroke-width:16;stroke-miterlimit:10;}
	.st4{clip-path:url(#SVGID_4_);}
	.st5{fill:#BE191D;}
	.st6{fill:#7B0207;}
	.st7{fill:#600D11;}
	.st8{fill:#BE191E;}
	.st9{fill:#AA111D;}
</style>
<path class="st0" d="M241.7,118.84l-6.9-33.6c0,0-2.1-12.2-2-20.1c0,0-0.8-26.9-19.3-35.6c0,0-6.5-3-15-5c0,0-20.8-6-33.5-14.9
	c0,0-10.9,20.2-31,24.8c-20.1-4.6-31-24.8-31-24.8c-12.8,8.9-33.6,14.9-33.6,14.9c-8.5,2-15,5-15,5c-18.6,8.7-19.3,35.6-19.3,35.6
	c0.1,7.9-2,20.1-2,20.1l-6.8,33.6c-0.1,0.3,0,0.6,0.2,0.8c7.5,8.3,33.2,5.9,37.3,5.3c0.4-0.1,0.7-0.4,0.8-0.8
	c1.2-8.7,2.3-15.1,3.5-23.9c4.3,8,8.4,17.5,11.1,32.9c2.9,17-0.1,48-0.9,58c-2.1,27.7-3.1,32.5-4.7,52.2c-0.5,5.6,2.6,11,7.6,13.5
	c22.2,10.9,50.5,10.6,52.8,10.6s30.6,0.3,52.8-10.6c5.1-2.5,8.1-7.8,7.6-13.4c-1.6-19.7-2.6-24.4-4.7-52.2c-0.8-10-3.8-41-0.9-58
	c2.7-15.4,6.8-25,11.1-32.9c1.2,8.8,2.3,15.2,3.5,23.9c0.1,0.4,0.4,0.7,0.8,0.8c4.1,0.6,29.8,3,37.3-5.3
	C241.7,119.44,241.8,119.14,241.7,118.84z"/>
<path class="st0" d="M241.7,118.82l-6.9-33.6c0,0-2.1-12.2-2-20.1c0,0-0.8-26.9-19.3-35.6c0,0-6.5-3-15-5c0,0-20.8-6-33.5-14.9
	c0,0-10.9,20.2-31,24.8c-20.1-4.6-31-24.8-31-24.8c-12.8,8.9-33.6,14.9-33.6,14.9c-8.5,2-15,5-15,5c-18.6,8.7-19.3,35.6-19.3,35.6
	c0.1,7.9-2,20.1-2,20.1l-6.8,33.6c-0.1,0.3,0,0.6,0.2,0.8c7.5,8.3,33.2,5.9,37.3,5.3c0.4-0.1,0.7-0.4,0.8-0.8
	c1.2-8.7,2.3-15.1,3.5-23.9c4.3,8,8.4,17.5,11.1,32.9c2.9,17-0.1,48-0.9,58c-2.1,27.7-3.1,32.5-4.7,52.2c-0.5,5.6,2.6,11,7.6,13.5
	c22.2,10.9,50.5,10.6,52.8,10.6s30.6,0.3,52.8-10.6c5.1-2.5,8.1-7.8,7.6-13.4c-1.6-19.7-2.6-24.4-4.7-52.2c-0.8-10-3.8-41-0.9-58
	c2.7-15.4,6.8-25,11.1-32.9c1.2,8.8,2.3,15.2,3.5,23.9c0.1,0.4,0.4,0.7,0.8,0.8c4.1,0.6,29.8,3,37.3-5.3
	C241.7,119.42,241.8,119.12,241.7,118.82z"/>
<g>
	<defs>
		<path id="SVGID_1_" d="M241.7,118.84l-6.9-33.6c0,0-2.1-12.2-2-20.1c0,0-0.8-26.9-19.3-35.6c0,0-6.5-3-15-5c0,0-20.8-6-33.5-14.9
			c0,0-10.9,20.2-31,24.8c-20.1-4.6-31-24.8-31-24.8c-12.8,8.9-33.6,14.9-33.6,14.9c-8.5,2-15,5-15,5c-18.6,8.7-19.3,35.6-19.3,35.6
			c0.1,7.9-2,20.1-2,20.1l-6.8,33.6c-0.1,0.3,0,0.6,0.2,0.8c7.5,8.3,33.2,5.9,37.3,5.3c0.4-0.1,0.7-0.4,0.8-0.8
			c1.2-8.7,2.3-15.1,3.5-23.9c4.3,8,8.4,17.5,11.1,32.9c2.9,17-0.1,48-0.9,58c-2.1,27.7-3.1,32.5-4.7,52.2c-0.5,5.6,2.6,11,7.6,13.5
			c22.2,10.9,50.5,10.6,52.8,10.6s30.6,0.3,52.8-10.6c5.1-2.5,8.1-7.8,7.6-13.4c-1.6-19.7-2.6-24.4-4.7-52.2c-0.8-10-3.8-41-0.9-58
			c2.7-15.4,6.8-25,11.1-32.9c1.2,8.8,2.3,15.2,3.5,23.9c0.1,0.4,0.4,0.7,0.8,0.8c4.1,0.6,29.8,3,37.3-5.3
			C241.7,119.44,241.8,119.14,241.7,118.84z"/>
	</defs>
	<clipPath id="SVGID_2_">
		<use xlink:href="#SVGID_1_"  style="overflow:visible;"/>
	</clipPath>
	<g class="st1">
		<path class="st2" d="M72.15,25.7c-8.5,2-15,5-15,5c-18.6,8.7-19.3,35.6-19.3,35.6c0.1,7.9-2,20.1-2,20.1l-7.93,38.44"/>
		<path class="st3" d="M95.95,34.86c-8.5,2-15,5-15,5c-18.6,8.7-19.3,35.6-19.3,35.6c0.1,7.9-2,20.1-2,20.1L51.72,134"/>
		<path class="st2" d="M195.85,25.7c8.5,2,15,5,15,5c18.6,8.7,19.3,35.6,19.3,35.6c-0.1,7.9,2,20.1,2,20.1l7.93,38.44"/>
		<path class="st3" d="M172.05,34.86c8.5,2,15,5,15,5c18.6,8.7,19.3,35.6,19.3,35.6c-0.1,7.9,2,20.1,2,20.1l7.93,38.44"/>
	</g>
</g>
<g>
	<defs>
		<path id="SVGID_3_" d="M69.15,102.24c3.91,7.6,7.57,16.76,10.05,30.89c2.9,17-0.1,48-0.9,58c-2.1,27.7-3.1,32.5-4.7,52.2
			c-0.5,5.6,2.6,11,7.6,13.5c22.2,10.9,50.5,10.6,52.8,10.6s30.6,0.3,52.8-10.6c5.1-2.5,8.1-7.8,7.6-13.4
			c-1.6-19.7-2.6-24.4-4.7-52.2c-0.8-10-3.8-41-0.9-58c2.7-15.4,6.8-25,11.1-32.9c0,0,6.37-54.41,13.73-70.73
			c-0.04-0.02-0.09-0.05-0.13-0.07c0,0-6.5-3-15-5c0,0-20.8-6-33.5-14.9c0,0-10.9,20.2-31,24.8c-20.1-4.6-31-24.8-31-24.8
			c-12.8,8.9-33.6,14.9-33.6,14.9c-8.5,2-15,5-15,5c7.37,16.31,13.7,70.7,13.7,70.7S68.53,100.9,69.15,102.24z"/>
	</defs>
	<use xlink:href="#SVGID_3_"  style="overflow:visible;fill:#F3F2F3;"/>
	<clipPath id="SVGID_4_">
		<use xlink:href="#SVGID_3_"  style="overflow:visible;"/>
	</clipPath>
	<g class="st4">
		<g>
			<g>
				<rect x="52.71" y="2.9" class="st5" width="20.08" height="265.1"/>
			</g>
			<g>
				<rect x="88.33" y="2.9" class="st5" width="20.08" height="265.1"/>
			</g>
			<g>
				<rect x="123.96" y="2.9" class="st5" width="20.08" height="265.1"/>
			</g>
			<g>
				<rect x="159.58" y="2.9" class="st5" width="20.08" height="265.1"/>
			</g>
			<g>
				<rect x="195.21" y="2.9" class="st5" width="20.08" height="265.1"/>
			</g>
		</g>
	</g>
</g>
<polygon class="st6" points="155.9,29.84 166,14.74 155,6.04 114,6.24 101.1,15.44 115.2,31.64 134.3,38.84 "/>
<path class="st6" d="M164.7,14.54l3-6.2c0,0-33.2-17.5-67.6,0l2.4,6.4C102.6,14.74,130.5-0.66,164.7,14.54z"/>
<g>
	<path class="st7" d="M102.5,14.74c2.37-1.24,4.85-2.25,7.37-3.16c2.54-0.86,5.11-1.6,7.73-2.19c5.23-1.17,10.59-1.8,15.96-1.77
		c5.35,0.06,10.74,0.52,15.95,1.79c2.64,0.49,5.17,1.38,7.73,2.16c1.29,0.36,2.5,0.95,3.75,1.44l3.71,1.53l-3.75-1.42
		c-1.26-0.45-2.48-1-3.78-1.32c-2.57-0.73-5.1-1.58-7.74-2.02c-5.2-1.19-10.55-1.64-15.87-1.66c-5.33-0.07-10.66,0.56-15.88,1.64
		C112.47,10.86,107.33,12.45,102.5,14.74z"/>
</g>
<path class="st5" d="M167.7,8.34c-1.6,3-4.4,7.5-8.3,12c-13.3,15.3-37,15.3-50.6,0.2c-4.2-4.6-7-9.2-8.7-12.2l-4.2,5.6
	c0,0,5.4,12.4,18,19.8c13.6,8,26.1,8.4,40.5-0.1c12.5-7.4,17.6-19.7,17.6-19.7L167.7,8.34z"/>
<g>
	<g>
		<path class="st8" d="M60.23,50.15c0.96,3.79,1.77,7.61,2.53,11.44c0.77,3.83,1.41,7.68,2.07,11.53c0.59,3.86,1.18,7.72,1.65,11.6
			c0.48,3.88,0.88,7.76,1.15,11.66c-0.36-1.92-0.63-3.85-0.98-5.78l-0.93-5.78l-1.87-11.55L62,61.72l-0.91-5.78L60.23,50.15z"/>
	</g>
	<g>
		<path class="st8" d="M54.4,29.54c0.82,0.91,1.32,1.97,1.74,3.05c0.38,1.1,0.67,2.24,0.61,3.46c-0.7-1-1.14-2.05-1.55-3.12
			C54.82,31.85,54.49,30.75,54.4,29.54z"/>
	</g>
</g>
<g>
	<g>
		<path class="st8" d="M207.83,50.07l-0.88,5.81l-0.92,5.8l-1.86,11.6l-1.89,11.59l-0.94,5.8c-0.35,1.93-0.62,3.87-0.98,5.8
			c0.27-3.91,0.67-7.81,1.16-11.7c0.48-3.89,1.07-7.77,1.66-11.64c0.67-3.86,1.32-7.73,2.09-11.57
			C206.05,57.7,206.87,53.87,207.83,50.07z"/>
	</g>
	<g>
		<path class="st8" d="M213.63,29.61c-0.09,1.2-0.43,2.29-0.8,3.36c-0.41,1.06-0.85,2.1-1.55,3.09c-0.06-1.21,0.22-2.35,0.61-3.43
			C212.3,31.55,212.81,30.5,213.63,29.61z"/>
	</g>
</g>
<g>
	<path class="st9" d="M95.9,13.94c1.77,3.63,4.09,6.96,6.7,10.01c2.62,3.05,5.61,5.79,8.92,8.07c6.66,4.42,14.42,7.6,22.47,7.6
		c8.05,0.02,15.82-3.13,22.51-7.52c3.32-2.26,6.29-5.02,8.91-8.08c2.59-3.07,4.89-6.43,6.59-10.09c-1.63,3.69-3.87,7.1-6.4,10.24
		c-2.6,3.09-5.57,5.89-8.91,8.19c-3.36,2.25-6.97,4.14-10.78,5.53c-3.81,1.38-7.84,2.19-11.91,2.22c-4.07-0.02-8.1-0.86-11.9-2.25
		c-3.8-1.41-7.41-3.29-10.76-5.58C104.7,27.65,99.35,21.23,95.9,13.94z"/>
</g>
<path class="st0" d="M113.02,28.38c12.54,8.5,29.57,8.55,42,0.06l-1.57-2.72c-11.56,8.18-27.2,8.14-38.86-0.06L113.02,28.38z"/>
</svg>
