<?xml version="1.0" encoding="utf-8"?>
<!-- Generator: Adobe Illustrator 25.2.3, SVG Export Plug-In . SVG Version: 6.00 Build 0)  -->
<svg version="1.1" id="Layer_1" xmlns="http://www.w3.org/2000/svg" xmlns:xlink="http://www.w3.org/1999/xlink" x="0px" y="0px"
	 viewBox="0 0 268 268" style="enable-background:new 0 0 268 268;" xml:space="preserve">
<style type="text/css">
	.st0{clip-path:url(#SVGID_4_);}
	.st1{fill:#BDAA9B;}
	.st2{fill:#F7F7F7;}
	.st3{clip-path:url(#SVGID_6_);}
	.st4{fill:#022A59;}
	.st5{clip-path:url(#SVGID_8_);}
	.st6{fill:none;stroke:#006CDF;stroke-width:1.1441;stroke-miterlimit:10;}
	.st7{fill:none;stroke:#006CDF;stroke-width:0.9153;stroke-miterlimit:10;}
	.st8{fill:none;stroke:#006CDF;stroke-width:0.6864;stroke-miterlimit:10;}
	.st9{fill:none;stroke:#006CDF;stroke-width:0.4576;stroke-miterlimit:10;}
	.st10{fill:none;stroke:#006CDF;stroke-width:1.6017;stroke-miterlimit:10;}
	.st11{fill:none;stroke:#006CDF;stroke-width:1.3729;stroke-miterlimit:10;}
	.st12{fill:#1D345E;}
	.st13{fill:#000D44;}
	.st14{fill:#04195A;}
	.st15{fill:#013986;}
	.st16{clip-path:url(#SVGID_10_);}
	.st17{fill:#006CDF;}
	.st18{clip-path:url(#SVGID_12_);}
	.st19{clip-path:url(#SVGID_14_);}
	.st20{fill:#E2BD31;}
</style>
<g>
	<g>
		<defs>
			<path id="SVGID_1_" d="M241.7,118.84l-6.9-33.6c0,0-2.1-12.2-2-20.1c0,0-0.8-26.9-19.3-35.6c0,0-6.5-3-15-5c0,0-20.8-6-33.5-14.9
				c0,0-10.9,20.2-31,24.8c-20.1-4.6-31-24.8-31-24.8c-12.8,8.9-33.6,14.9-33.6,14.9c-8.5,2-15,5-15,5
				c-18.6,8.7-19.3,35.6-19.3,35.6c0.1,7.9-2,20.1-2,20.1l-6.8,33.6c-0.1,0.3,0,0.6,0.2,0.8c7.5,8.3,33.2,5.9,37.3,5.3
				c0.4-0.1,0.7-0.4,0.8-0.8c1.2-8.7,2.3-15.1,3.5-23.9c4.3,8,8.4,17.5,11.1,32.9c2.9,17-0.1,48-0.9,58c-2.1,27.7-3.1,32.5-4.7,52.2
				c-0.5,5.6,2.6,11,7.6,13.5c22.2,10.9,50.5,10.6,52.8,10.6s30.6,0.3,52.8-10.6c5.1-2.5,8.1-7.8,7.6-13.4
				c-1.6-19.7-2.6-24.4-4.7-52.2c-0.8-10-3.8-41-0.9-58c2.7-15.4,6.8-25,11.1-32.9c1.2,8.8,2.3,15.2,3.5,23.9
				c0.1,0.4,0.4,0.7,0.8,0.8c4.1,0.6,29.8,3,37.3-5.3C241.7,119.44,241.8,119.14,241.7,118.84z"/>
		</defs>
		<clipPath id="SVGID_4_">
			<use xlink:href="#SVGID_1_"  style="overflow:visible;"/>
		</clipPath>
		<g class="st0">
			<path class="st1" d="M57.02,120.7c-2.69,0.13-6.07,0.21-10.35,0.21c-16.45,0-21-7.96-21-7.96s-0.83,5.12-0.83,6.6
				c-0.1,1.59,0,3.07,7.86,6.25c4.76,2,15.35,2.29,23.27,2.03L57.02,120.7z"/>
			<path class="st2" d="M56.67,123.08c-2.61,0.1-5.79,0.16-9.64,0.16c-17.41,0-22.23-7.96-22.23-7.96s-0.88,5.12-0.87,6.6
				c-0.11,1.59,0,3.07,8.32,6.25c4.79,1.9,15.16,2.25,23.38,2.06L56.67,123.08z"/>
		</g>
	</g>
	<g>
		<defs>
			<path id="SVGID_5_" d="M241.7,118.84l-6.9-33.6c0,0-2.1-12.2-2-20.1c0,0-0.8-26.9-19.3-35.6c0,0-6.5-3-15-5c0,0-20.8-6-33.5-14.9
				c0,0-10.9,20.2-31,24.8c-20.1-4.6-31-24.8-31-24.8c-12.8,8.9-33.6,14.9-33.6,14.9c-8.5,2-15,5-15,5
				c-18.6,8.7-19.3,35.6-19.3,35.6c0.1,7.9-2,20.1-2,20.1l-6.8,33.6c-0.1,0.3,0,0.6,0.2,0.8c7.5,8.3,33.2,5.9,37.3,5.3
				c0.4-0.1,0.7-0.4,0.8-0.8c1.2-8.7,2.3-15.1,3.5-23.9c4.3,8,8.4,17.5,11.1,32.9c2.9,17-0.1,48-0.9,58c-2.1,27.7-3.1,32.5-4.7,52.2
				c-0.5,5.6,2.6,11,7.6,13.5c22.2,10.9,50.5,10.6,52.8,10.6s30.6,0.3,52.8-10.6c5.1-2.5,8.1-7.8,7.6-13.4
				c-1.6-19.7-2.6-24.4-4.7-52.2c-0.8-10-3.8-41-0.9-58c2.7-15.4,6.8-25,11.1-32.9c1.2,8.8,2.3,15.2,3.5,23.9
				c0.1,0.4,0.4,0.7,0.8,0.8c4.1,0.6,29.8,3,37.3-5.3C241.7,119.44,241.8,119.14,241.7,118.84z"/>
		</defs>
		<clipPath id="SVGID_6_">
			<use xlink:href="#SVGID_5_"  style="overflow:visible;"/>
		</clipPath>
		<g class="st3">
			<path class="st1" d="M210.57,120.7c2.69,0.13,6.07,0.21,10.35,0.21c16.45,0,21-7.96,21-7.96s0.83,5.12,0.83,6.6
				c0.1,1.59,0,3.07-7.86,6.25c-4.76,2-15.35,2.29-23.27,2.03L210.57,120.7z"/>
			<path class="st2" d="M210.91,123.08c2.61,0.1,5.79,0.16,9.64,0.16c17.41,0,22.23-7.96,22.23-7.96s0.88,5.12,0.87,6.6
				c0.11,1.59,0,3.07-8.32,6.25c-4.79,1.9-15.16,2.25-23.38,2.06L210.91,123.08z"/>
		</g>
	</g>
</g>
<g>
	<path class="st2" d="M211.29,125.66c2.63,0.07,5.26,0.05,7.88-0.03c2.62-0.1,5.24-0.26,7.84-0.59c2.59-0.34,5.18-0.8,7.67-1.59
		c2.46-0.8,4.91-1.91,6.71-3.8l-0.01,0.02c0.17-0.24,0.28-0.53,0.2-0.79v-0.01l0,0l-0.28-1.97l0.52,1.92v-0.01
		c0.13,0.36-0.02,0.74-0.2,1.01l-0.01,0.01l-0.01,0.01c-1.8,2-4.27,3.22-6.78,4.04c-2.52,0.83-5.13,1.34-7.75,1.64
		C221.83,126.13,216.53,126.09,211.29,125.66z"/>
</g>
<g>
	<path class="st2" d="M27.13,114.76l-0.72,4.1l0,0v0.01c-0.08,0.28,0.03,0.56,0.29,0.76l0.73,0.67c0.47,0.46,1.07,0.77,1.59,1.16
		c0.58,0.31,1.16,0.64,1.76,0.9c0.62,0.24,1.21,0.54,1.84,0.73c2.5,0.88,5.12,1.37,7.75,1.75c2.63,0.37,5.29,0.54,7.95,0.66
		c2.66,0.09,5.33,0.12,8,0.07c-2.66,0.2-5.33,0.32-8.01,0.28c-2.67-0.01-5.35-0.2-8.01-0.54c-2.66-0.34-5.3-0.91-7.83-1.81
		c-0.64-0.2-1.25-0.51-1.87-0.77c-0.61-0.29-1.19-0.65-1.77-0.98c-0.53-0.42-1.13-0.75-1.6-1.24l-0.73-0.71
		c-0.27-0.2-0.46-0.66-0.31-1.02v0.01L27.13,114.76z"/>
</g>
<g>
	<path class="st4" d="M134.24,36.19l-3.44,0.55l-3.45,0.49c-2.3,0.29-4.6,0.59-6.92,0.78c2.28-0.43,4.58-0.75,6.88-1.08
		C129.62,36.65,131.92,36.33,134.24,36.19z"/>
</g>
<g>
	<defs>
		<path id="SVGID_7_" d="M241.7,118.84l-6.9-33.6c0,0-2.1-12.2-2-20.1c0,0-0.8-26.9-19.3-35.6c0,0-6.5-3-15-5c0,0-20.8-6-33.5-14.9
			c0,0-10.9,20.2-31,24.8c-20.1-4.6-31-24.8-31-24.8c-12.8,8.9-33.6,14.9-33.6,14.9c-8.5,2-15,5-15,5c-18.6,8.7-19.3,35.6-19.3,35.6
			c0.1,7.9-2,20.1-2,20.1l-6.8,33.6c-0.1,0.3,0,0.6,0.2,0.8c7.5,8.3,33.2,5.9,37.3,5.3c0.4-0.1,0.7-0.4,0.8-0.8
			c1.2-8.7,2.3-15.1,3.5-23.9c4.3,8,8.4,17.5,11.1,32.9c2.9,17-0.1,48-0.9,58c-2.1,27.7-3.1,32.5-4.7,52.2c-0.5,5.6,2.6,11,7.6,13.5
			c22.2,10.9,50.5,10.6,52.8,10.6s30.6,0.3,52.8-10.6c5.1-2.5,8.1-7.8,7.6-13.4c-1.6-19.7-2.6-24.4-4.7-52.2c-0.8-10-3.8-41-0.9-58
			c2.7-15.4,6.8-25,11.1-32.9c1.2,8.8,2.3,15.2,3.5,23.9c0.1,0.4,0.4,0.7,0.8,0.8c4.1,0.6,29.8,3,37.3-5.3
			C241.7,119.44,241.8,119.14,241.7,118.84z"/>
	</defs>
	<use xlink:href="#SVGID_7_"  style="overflow:visible;fill:#013986;"/>
	<clipPath id="SVGID_8_">
		<use xlink:href="#SVGID_7_"  style="overflow:visible;"/>
	</clipPath>
	<g class="st5">
		<polyline class="st6" points="144.68,16.85 145.01,37.79 152.01,43.89 146.24,52.54 153.65,61.18 149.12,70.34 157.36,77.97 
			151.18,88.65 160.24,95.77 152.01,106.45 160.24,113.06 149.12,122.22 152.01,128.32 138.42,140.53 144.18,148.16 131.42,158.84 
			137.6,162.91 126.07,178.17 136.87,177.1 127.29,193.26 138.5,195.35 132.67,206.15 141.6,209.3 142.2,225.08 153.22,225.09 
			148.01,235.62 161.81,241.73 158.84,257.54 169.51,262.03 165.01,281.4 		"/>
		<polyline class="st7" points="139.83,17.64 140.48,38.8 146.24,44.91 142.12,53.55 148.71,62.2 144.18,71.86 152.42,78.99 
			146.24,89.67 155.71,96.28 147.07,106.96 155.3,113.57 142.95,122.73 146.24,129.85 132.65,142.05 138.42,149.68 125.65,160.87 
			131.83,164.94 120.3,180.71 131.07,179.57 122.66,196.42 133.57,198.44 128.25,209.7 137.04,212.69 138.29,228.81 149.04,228.1 
			144.33,239.28 157.92,244.4 154.94,260.59 165.59,264.24 160.86,283.76 		"/>
		<polyline class="st7" points="134.47,18.48 135.12,39.82 141.3,45.93 137.18,54.57 143.36,63.22 139.65,72.88 146.24,80 
			140.89,90.68 149.95,97.3 141.3,107.98 149.54,114.59 138.01,123.74 140.48,130.86 127.71,144.09 131.01,151.21 119.89,162.91 
			125.41,167.52 115.12,183.44 124.78,182.38 117.75,199.96 128.36,202.14 123.58,213.76 132.26,216.76 134.17,233.14 
			144.65,231.91 140.25,243.58 153.68,247.82 150.49,264.25 161.19,267.07 156.09,286.61 		"/>
		<polyline class="st8" points="129.15,19.24 129.77,40.84 135.95,46.94 131.42,55.59 138.01,64.24 133.89,73.9 140.89,81.02 
			135.12,91.19 144.6,98.31 135.54,108.99 143.36,115.1 132.24,124.76 133.89,132.39 121.12,144.6 124.83,152.73 114.12,164.43 
			119.35,169.79 110.17,186.24 119.37,185.41 113.06,203.4 123.44,205.98 119.15,217.78 127.75,221.01 130.15,237.53 140.55,236.14 
			136.07,247.92 149.46,251.63 145.87,268.05 156.7,270.24 151.13,289.6 		"/>
		<polyline class="st8" points="123.86,19.9 125.24,41.86 130.6,47.96 125.24,56.61 133.48,65.25 127.71,74.41 135.95,82.04 
			129.36,92.21 138.83,99.33 129.77,109.5 137.6,116.11 128.12,125.78 128.9,132.78 116.43,146.04 118.65,154.26 108.36,165.96 
			112.89,171.99 105.48,188.85 114.12,188.34 108.36,206.65 118.65,209.7 114.95,221.4 124.04,225.88 126.89,241.23 136.36,240.72 
			131.83,252.42 144.18,255.98 140.89,271.75 152.01,273.78 145.94,292.66 		"/>
		<polyline class="st9" points="115.68,20.45 116.97,42.37 121.91,48.98 116.97,57.11 123.97,66.27 119.85,74.92 127.67,83.05 
			121.91,92.72 130.56,100.35 121.08,110.01 128.91,116.62 118.2,126.29 119.85,134.42 107.91,147.14 110.38,156.29 100.08,167.48 
			104.91,173.8 97.91,191.21 106.56,191.39 101.2,209.54 111.38,213.53 107.69,225.07 116.41,229.42 118.83,245.93 129.5,244.85 
			124.11,256.28 137.74,259.81 132.98,275.6 144.33,277.16 137.58,295.67 		"/>
		<polyline class="st9" points="107.07,20.87 102.16,41.47 113.19,49.49 109.07,57.62 115.25,66.78 110.3,75.43 117.72,83.56 
			112.78,93.23 121.42,100.86 111.95,110.52 119.78,117.64 109.89,126.29 111.13,135.44 99.19,148.16 101.66,157.31 91.43,168.68 
			96.52,175.71 90.07,193.23 98.54,194.11 93.47,212.07 103.67,216.96 100.03,228.12 108.88,233.18 110.83,249.49 121.81,249.14 
			115.77,259.97 129.64,263.88 124.21,279.11 135.91,280.69 128.51,298.55 		"/>
		<polyline class="st6" points="149.58,16.04 149.95,36.77 156.95,42.87 151.18,51.52 159.42,59.66 154.07,69.32 162.3,76.95 
			156.12,87.63 165.18,94.75 157.77,105.43 165.18,112.55 154.07,120.69 159.01,128.32 144.18,139 149.95,146.63 137.18,156.8 
			143.36,160.87 131.42,175.62 142.8,174.75 132.15,190.21 143.68,192.54 137.34,202.79 146.41,206.25 146.36,221.64 157.63,222.49 
			151.86,232.34 165.83,239.46 162.71,254.78 173.45,260.18 169.06,279.29 		"/>
		<polyline class="st10" points="176.19,12.37 182.05,23.18 176.32,32.31 183.39,38.74 177.32,46.7 185.23,55.87 179.51,64.81 
			187.52,73.28 181.42,83.38 190.3,91.68 182.02,102.09 190.15,109.72 183.24,118.31 190.6,127.49 176.08,134.17 182.99,142.64 
			169.35,149.17 176.26,154.47 163.57,165.42 175.48,167.31 162.84,178.53 174.34,184.45 165.75,190.88 175.1,197.3 171.93,210.42 
			183.68,216.21 175.46,221.92 189.2,234.65 184.12,246.61 194.92,257.17 189.78,273.63 		"/>
		<polyline class="st11" points="170.47,12.99 176.34,23.73 170.68,33.03 177.76,39.3 171.77,47.44 179.75,56.42 174.11,65.52 
			182.17,73.79 176.12,84.04 185.04,92.1 176.75,102.68 184.93,110.09 177.99,118.77 184.36,127.15 169.1,134.5 175.88,142.46 
			162.32,150.17 169.18,154.97 156.6,166.98 168.49,167.89 156,180.21 167.61,185.05 159.3,192.4 168.67,198.08 166.12,211.74 
			177.87,216.45 170.08,223.1 184.02,234.63 179.4,247.37 190.28,256.82 185.43,273.96 		"/>
		<polyline class="st11" points="164.8,13.71 165.18,33.72 171.36,39.82 167.24,48.47 173.42,57.11 169.71,66.27 176.71,74.41 
			171.77,85.09 179.59,92.72 171.36,103.4 179.59,110.52 173.01,119.17 177.54,126.8 162.3,135.44 168.89,143.07 155.3,151.72 
			162.3,156.29 149.54,169.01 161.48,169.01 149.12,182.23 160.89,186.31 153.05,194.49 162.41,199.48 160.5,213.64 172.19,217.29 
			164.89,224.85 178.94,235.17 174.79,248.66 185.69,257 181.08,274.77 		"/>
		<polyline class="st11" points="159.18,14.51 159.46,26.17 159.5,34.87 166.57,40.87 160.73,49.36 168.82,57.95 163.35,67.38 
			171.49,75.23 165.49,85.75 174.49,93.34 166.12,104.15 174.41,111.16 165.37,119.46 170.48,126.85 155.45,136.47 161.86,143.87 
			148.57,153.39 155.19,157.59 142.95,171.29 154.59,170.82 142.55,184.94 154.33,188.14 147.06,197.13 156.35,201.47 155.1,216.1 
			166.69,218.7 159.91,227.14 174.01,236.27 170.3,250.47 181.16,257.72 176.72,276.05 		"/>
		<polyline class="st6" points="153.62,15.38 154.07,35.75 161.07,41.86 155.3,50.5 163.54,59.15 159.01,68.3 165.18,75.93 
			161.07,86.61 169.3,94.24 160.65,104.92 168.89,112.05 159.01,120.18 163.54,127.3 148.71,137.98 154.89,145.11 141.71,155.28 
			148.3,159.35 136.36,173.59 147.75,172.96 136.31,187.85 148.09,190.5 141.34,200.24 150.52,204.03 149.96,219.11 161.38,220.69 
			155.17,229.95 169.23,237.92 165.9,252.78 176.69,258.96 172.32,277.77 		"/>
		<polyline class="st6" points="61.69,271.38 61.36,250.44 54.36,244.34 60.13,235.69 52.71,227.05 57.24,217.89 49.01,210.26 
			55.18,199.58 46.13,192.46 54.36,181.78 46.13,175.17 57.24,166.01 54.36,159.91 67.95,147.7 62.18,140.07 74.95,129.39 
			68.77,125.32 80.3,110.07 69.5,111.13 79.08,94.97 67.86,92.88 73.7,82.08 64.76,78.93 64.17,63.16 53.15,63.14 58.36,52.61 
			44.56,46.5 47.53,30.69 36.85,26.2 41.36,6.83 		"/>
		<polyline class="st7" points="66.54,270.59 65.89,249.43 60.13,243.32 64.24,234.68 57.66,226.03 62.18,216.37 53.95,209.25 
			60.13,198.56 50.66,191.95 59.3,181.27 51.07,174.66 63.42,165.5 60.13,158.38 73.71,146.18 67.95,138.55 80.71,127.36 
			74.54,123.29 86.07,107.52 75.3,108.66 83.71,91.81 72.8,89.79 78.12,78.53 69.32,75.54 68.07,59.42 57.33,60.14 62.03,48.95 
			48.45,43.83 51.43,27.64 40.78,23.99 45.5,4.47 		"/>
		<polyline class="st7" points="73.74,269.75 73.08,248.41 66.91,242.31 71.03,233.66 64.85,225.01 68.55,215.35 61.97,208.23 
			67.32,197.55 58.26,190.94 66.91,180.25 58.67,173.64 70.2,164.49 67.73,157.37 80.5,144.14 77.2,137.02 88.32,125.32 
			82.8,120.71 93.09,104.79 83.42,105.85 90.46,88.27 79.85,86.09 84.63,74.47 75.95,71.47 74.04,55.09 63.56,56.32 67.96,44.65 
			54.53,40.41 57.72,23.98 47.02,21.16 52.12,1.62 		"/>
		<polyline class="st8" points="79.24,268.99 78.61,247.39 72.44,241.29 76.97,232.64 70.38,224 74.5,214.33 67.5,207.21 
			73.26,197.04 63.79,189.92 72.85,179.24 65.03,173.13 76.14,163.47 74.5,155.84 87.26,143.63 83.55,135.5 94.26,123.8 
			89.04,118.44 98.21,101.99 89.01,102.82 95.32,84.83 84.95,82.25 89.24,70.45 80.63,67.22 78.23,50.7 67.84,52.09 72.31,40.31 
			58.92,36.6 62.52,20.18 51.69,17.99 57.26,-1.37 		"/>
		<polyline class="st8" points="84.46,266.45 83.08,244.49 77.73,238.39 83.08,229.74 74.85,221.1 80.61,211.94 72.38,204.31 
			78.97,194.14 69.5,187.02 78.56,176.85 70.73,170.23 80.2,160.57 79.43,153.57 91.89,140.31 89.67,132.09 99.97,120.39 
			95.44,114.36 102.85,97.5 94.2,98.01 99.97,79.7 89.67,76.65 93.38,64.95 84.28,60.47 81.44,45.12 71.97,45.62 76.5,33.93 
			64.14,30.37 67.44,14.6 56.32,12.56 62.39,-6.31 		"/>
		<polyline class="st9" points="89.29,266.25 88.01,244.34 83.07,237.72 88.01,229.59 81.01,220.43 85.13,211.78 77.3,203.65 
			83.07,193.98 74.42,186.35 83.89,176.69 76.07,170.08 86.77,160.41 85.13,152.28 97.07,139.56 94.6,130.41 104.89,119.22 
			100.07,112.9 107.07,95.49 98.41,95.31 103.77,77.16 93.59,73.17 97.29,61.63 88.57,57.28 86.15,40.77 75.48,41.85 80.87,30.42 
			67.23,26.89 72,11.1 60.64,9.54 67.4,-8.97 		"/>
		<polyline class="st9" points="95.98,267.36 94.81,245.36 89.87,238.75 93.98,230.61 87.81,221.45 92.75,212.81 85.34,204.67 
			90.28,195 81.63,187.38 91.1,177.71 83.28,170.59 93.16,161.94 91.92,152.79 103.87,140.07 101.39,130.92 111.62,119.55 
			106.53,112.52 112.99,95 104.51,94.12 109.59,76.16 99.38,71.27 103.02,60.11 94.18,55.05 95.84,36.19 81.24,39.1 90.07,25.88 
			73.41,24.35 77.06,0.77 67.14,7.54 74.55,-10.32 		"/>
		<polyline class="st6" points="56.79,272.19 56.42,251.46 49.42,245.36 55.18,236.71 46.95,228.57 52.3,218.91 44.07,211.28 
			50.24,200.6 41.18,193.48 48.6,182.8 41.18,175.68 52.3,167.54 47.36,159.91 62.18,149.23 56.42,141.6 69.18,131.43 63.01,127.36 
			74.95,112.61 63.56,113.48 74.21,98.02 62.69,95.69 69.03,85.44 59.96,81.99 60,66.59 48.74,65.74 54.51,55.89 40.53,48.77 
			43.66,33.45 32.92,28.05 37.31,8.94 		"/>
		<polyline class="st10" points="24.42,276.35 18.58,265.46 24.38,256.51 17.34,249.91 23.48,242.13 15.64,232.75 21.45,223.98 
			13.49,215.31 19.65,205.38 10.81,196.84 19.11,186.61 11.02,178.75 17.91,170.29 10.06,160.53 23.24,153.82 16.26,144.68 
			29.94,139.51 23.01,133.56 35.79,123.83 23.92,120.78 36.67,110.79 25.05,103.77 33.98,98.25 24.71,91.08 28.46,78.52 
			16.77,71.65 25.38,66.92 11.89,52.98 17.44,41.82 6.78,30.16 12.24,14.42 		"/>
		<polyline class="st10" points="30.18,275.86 24.32,265.05 30.04,255.92 22.98,249.49 29.05,241.53 21.14,232.36 26.86,223.42 
			18.85,214.95 24.94,204.85 16.06,196.55 24.35,186.14 16.22,178.51 23.13,169.92 15.77,160.74 30.29,154.07 23.38,145.59 
			37.02,139.06 30.1,133.76 42.8,122.81 30.88,120.92 43.53,109.7 32.03,103.79 40.61,97.35 31.27,90.93 34.44,77.81 22.69,72.02 
			30.91,66.31 17.17,53.58 22.25,41.62 11.45,31.06 16.58,14.6 		"/>
		<polyline class="st11" points="35.89,275.24 30.03,264.5 35.69,255.2 28.61,248.93 34.6,240.79 26.62,231.81 32.26,222.71 
			24.2,214.44 30.24,204.19 21.32,196.13 29.62,185.55 21.44,178.14 28.38,169.46 22.01,161.08 37.27,153.73 30.48,145.77 
			44.04,138.06 37.18,133.26 49.77,121.25 37.87,120.34 50.36,108.02 38.76,103.18 47.07,95.83 37.7,90.15 40.25,76.49 28.5,71.78 
			36.29,65.13 22.35,53.6 26.97,40.86 16.09,31.42 20.93,14.27 		"/>
		<polyline class="st11" points="41.57,274.52 41.18,254.51 35.01,248.41 39.13,239.76 32.95,231.12 36.66,221.96 29.66,213.82 
			34.6,203.14 26.77,195.51 35.01,184.83 26.77,177.71 33.36,169.07 28.83,161.44 44.07,152.79 37.48,145.16 51.07,136.51 
			44.07,131.94 56.83,119.22 44.89,119.22 57.24,106 45.48,101.93 53.32,93.74 43.96,88.75 45.87,74.59 34.17,70.94 41.48,63.39 
			27.43,53.06 31.57,39.57 20.68,31.23 25.28,13.46 		"/>
		<polyline class="st11" points="47.19,273.72 46.91,262.06 46.87,253.37 39.8,247.36 45.64,238.87 37.55,230.28 43.02,220.85 
			34.88,213 40.88,202.48 31.88,194.89 40.25,184.08 31.96,177.07 41,168.77 35.89,161.38 50.92,151.76 44.51,144.36 57.8,134.84 
			51.18,130.64 63.42,116.94 51.78,117.41 63.82,103.29 52.04,100.09 59.31,91.11 50.02,86.76 51.27,72.13 39.68,69.53 46.46,61.1 
			32.36,51.96 36.07,37.76 25.21,30.51 29.65,12.18 		"/>
		<polyline class="st6" points="52.75,272.85 52.3,252.48 45.3,246.37 51.07,237.73 42.83,229.08 47.36,219.93 41.18,212.3 
			45.3,201.62 37.07,193.99 45.71,183.31 37.48,176.19 47.36,168.05 42.83,160.93 57.66,150.25 51.48,143.13 64.66,132.95 
			58.07,128.88 70.01,114.64 58.62,115.27 70.06,100.38 58.28,97.73 65.03,87.99 55.85,84.2 56.41,69.12 44.99,67.54 51.2,58.28 
			37.14,50.31 40.47,35.45 29.68,29.27 34.05,10.46 		"/>
	</g>
</g>
<g>
	<polygon class="st12" points="156.05,29.84 166.14,14.78 155.11,6.03 113.99,6.22 101.08,15.4 115.24,31.59 134.49,41.47 	"/>
	<polygon class="st13" points="156.66,29.72 166.75,14.65 155.72,5.9 114.6,6.09 101.7,15.28 115.86,31.47 135.1,41.34 	"/>
	<path class="st14" d="M164.91,14.55l2.95-6.18c0,0-33.25-17.55-67.76,0l2.55,6.42C102.65,14.78,130.6-0.68,164.91,14.55z"/>
	<path class="st15" d="M167.86,8.36c-4.01,7.38-14.76,23.55-33.62,27.83c-19.19-4.36-30.19-20.76-34.14-27.83l-4.26,5.61
		c0,0,13.72,23.83,38.4,29.44c24.67-5.61,37.96-29.42,37.96-29.42L167.86,8.36z"/>
</g>
<g>
	<path class="st14" d="M95.84,13.97c2.18,3.52,4.73,6.79,7.47,9.87c2.76,3.07,5.78,5.91,9.01,8.48c3.2,2.6,6.72,4.8,10.39,6.66
		l2.79,1.33l2.89,1.1l1.44,0.54l1.49,0.41l2.97,0.81h-0.11l2.95-0.81l1.48-0.4l1.44-0.54l2.87-1.09l2.77-1.33
		c3.64-1.85,7.13-4.05,10.3-6.65c3.2-2.56,6.17-5.4,8.89-8.48c2.7-3.08,5.2-6.36,7.32-9.88c-2.08,3.54-4.55,6.85-7.23,9.96
		c-2.69,3.11-5.65,5.99-8.83,8.59c-3.16,2.64-6.64,4.88-10.29,6.79l-2.77,1.37l-2.88,1.13l-1.44,0.56l-1.49,0.42l-2.98,0.85
		l-0.06,0.02l-0.06-0.02l-3-0.85l-1.5-0.43l-1.45-0.56l-2.9-1.13l-2.79-1.37c-3.67-1.91-7.19-4.16-10.38-6.8
		c-3.21-2.61-6.21-5.48-8.94-8.59C100.5,20.81,97.98,17.5,95.84,13.97z"/>
</g>
<g>
	<defs>
		<path id="SVGID_9_" d="M241.7,118.84l-6.9-33.6c0,0-2.1-12.2-2-20.1c0,0-0.8-26.9-19.3-35.6c0,0-6.5-3-15-5c0,0-20.8-6-33.5-14.9
			c0,0-10.9,20.2-31,24.8c-20.1-4.6-31-24.8-31-24.8c-12.8,8.9-33.6,14.9-33.6,14.9c-8.5,2-15,5-15,5c-18.6,8.7-19.3,35.6-19.3,35.6
			c0.1,7.9-2,20.1-2,20.1l-6.8,33.6c-0.1,0.3,0,0.6,0.2,0.8c7.5,8.3,33.2,5.9,37.3,5.3c0.4-0.1,0.7-0.4,0.8-0.8
			c1.2-8.7,2.3-15.1,3.5-23.9c4.3,8,8.4,17.5,11.1,32.9c2.9,17-0.1,48-0.9,58c-2.1,27.7-3.1,32.5-4.7,52.2c-0.5,5.6,2.6,11,7.6,13.5
			c22.2,10.9,50.5,10.6,52.8,10.6s30.6,0.3,52.8-10.6c5.1-2.5,8.1-7.8,7.6-13.4c-1.6-19.7-2.6-24.4-4.7-52.2c-0.8-10-3.8-41-0.9-58
			c2.7-15.4,6.8-25,11.1-32.9c1.2,8.8,2.3,15.2,3.5,23.9c0.1,0.4,0.4,0.7,0.8,0.8c4.1,0.6,29.8,3,37.3-5.3
			C241.7,119.44,241.8,119.14,241.7,118.84z"/>
	</defs>
	<clipPath id="SVGID_10_">
		<use xlink:href="#SVGID_9_"  style="overflow:visible;"/>
	</clipPath>
	<g class="st16">
		
			<rect x="199.62" y="14.78" transform="matrix(0.9463 -0.3234 0.3234 0.9463 3.7094 67.1809)" class="st17" width="8.83" height="15.29"/>
		
			<rect x="196.21" y="32.11" transform="matrix(0.9463 -0.3234 0.3234 0.9463 -2.0763 67.0101)" class="st17" width="8.83" height="15.29"/>
		
			<rect x="212.92" y="26.4" transform="matrix(0.9463 -0.3234 0.3234 0.9463 0.667 72.1051)" class="st17" width="8.83" height="15.29"/>
		
			<rect x="192.81" y="49.43" transform="matrix(0.9463 -0.3234 0.3234 0.9463 -7.862 66.8393)" class="st17" width="8.83" height="15.29"/>
		
			<rect x="209.51" y="43.72" transform="matrix(0.9463 -0.3234 0.3234 0.9463 -5.1187 71.9343)" class="st17" width="8.83" height="15.29"/>
		
			<rect x="226.22" y="38.02" transform="matrix(0.9463 -0.3234 0.3234 0.9463 -2.3754 77.0292)" class="st17" width="8.83" height="15.29"/>
		
			<rect x="189.4" y="66.76" transform="matrix(0.9463 -0.3234 0.3234 0.9463 -13.6477 66.6685)" class="st17" width="8.83" height="15.29"/>
		
			<rect x="206.1" y="61.05" transform="matrix(0.9463 -0.3234 0.3234 0.9463 -10.9044 71.7634)" class="st17" width="8.83" height="15.29"/>
		
			<rect x="222.81" y="55.34" transform="matrix(0.9463 -0.3234 0.3234 0.9463 -8.1611 76.8584)" class="st17" width="8.83" height="15.29"/>
		
			<rect x="202.7" y="78.38" transform="matrix(0.9463 -0.3234 0.3234 0.9463 -16.6901 71.5926)" class="st17" width="8.83" height="15.29"/>
		
			<rect x="219.4" y="72.67" transform="matrix(0.9463 -0.3234 0.3234 0.9463 -13.9468 76.6876)" class="st17" width="8.83" height="15.29"/>
		
			<rect x="199.29" y="95.7" transform="matrix(0.9463 -0.3234 0.3234 0.9463 -22.4758 71.4218)" class="st17" width="8.83" height="15.29"/>
		
			<rect x="215.99" y="90" transform="matrix(0.9463 -0.3234 0.3234 0.9463 -19.7325 76.5168)" class="st17" width="8.83" height="15.29"/>
		
			<rect x="232.7" y="84.29" transform="matrix(0.9463 -0.3234 0.3234 0.9463 -16.9893 81.6117)" class="st17" width="8.83" height="15.29"/>
		
			<rect x="195.88" y="113.03" transform="matrix(0.9463 -0.3234 0.3234 0.9463 -28.2615 71.251)" class="st17" width="8.83" height="15.29"/>
		
			<rect x="212.59" y="107.32" transform="matrix(0.9463 -0.3234 0.3234 0.9463 -25.5182 76.3459)" class="st17" width="8.83" height="15.29"/>
		
			<rect x="229.29" y="101.61" transform="matrix(0.9463 -0.3234 0.3234 0.9463 -22.775 81.4409)" class="st17" width="8.83" height="15.29"/>
		
			<rect x="209.18" y="124.65" transform="matrix(0.9463 -0.3234 0.3234 0.9463 -31.3039 76.1751)" class="st17" width="8.83" height="15.29"/>
		
			<rect x="225.89" y="118.94" transform="matrix(0.9463 -0.3234 0.3234 0.9463 -28.5607 81.2701)" class="st17" width="8.83" height="15.29"/>
		
			<rect x="242.59" y="113.23" transform="matrix(0.9463 -0.3234 0.3234 0.9463 -25.8174 86.365)" class="st17" width="8.83" height="15.29"/>
	</g>
	<g class="st16">
		<defs>
			<path id="SVGID_11_" d="M174.23,7.68c0,0-8.26,60.08-7.48,109.22s5.45,166.1,5.45,166.1s34.55,27.34,41.13-31.42
				c6.58-58.77-15.99-102.28-17.48-114.98c-1.49-12.7,4.06-36.26,4.06-36.26s-2.75-62.16,3.6-74.46
				C209.84,13.58,174.23,7.68,174.23,7.68z"/>
		</defs>
		<use xlink:href="#SVGID_11_"  style="overflow:visible;fill:#013986;"/>
		<clipPath id="SVGID_12_">
			<use xlink:href="#SVGID_11_"  style="overflow:visible;"/>
		</clipPath>
		<g class="st18">
			<rect x="155.44" y="9.64" class="st17" width="6.94" height="16.13"/>
			<rect x="169.31" y="9.64" class="st17" width="6.94" height="16.13"/>
			<rect x="183.18" y="9.64" class="st17" width="6.94" height="16.13"/>
			<rect x="197.05" y="9.64" class="st17" width="6.94" height="16.13"/>
			<rect x="210.92" y="9.64" class="st17" width="6.94" height="16.13"/>
			<rect x="162.37" y="25.77" class="st17" width="6.94" height="16.13"/>
			<rect x="176.24" y="25.77" class="st17" width="6.94" height="16.13"/>
			<rect x="190.11" y="25.77" class="st17" width="6.94" height="16.13"/>
			<rect x="203.98" y="25.77" class="st17" width="6.94" height="16.13"/>
			<rect x="155.44" y="41.9" class="st17" width="6.94" height="16.13"/>
			<rect x="169.31" y="41.9" class="st17" width="6.94" height="16.13"/>
			<rect x="183.18" y="41.9" class="st17" width="6.94" height="16.13"/>
			<rect x="197.05" y="41.9" class="st17" width="6.94" height="16.13"/>
			<rect x="210.92" y="41.9" class="st17" width="6.94" height="16.13"/>
			<rect x="162.37" y="58.03" class="st17" width="6.94" height="16.13"/>
			<rect x="176.24" y="58.03" class="st17" width="6.94" height="16.13"/>
			<rect x="190.11" y="58.03" class="st17" width="6.94" height="16.13"/>
			<rect x="203.98" y="58.03" class="st17" width="6.94" height="16.13"/>
			<rect x="155.44" y="74.16" class="st17" width="6.94" height="16.13"/>
			<rect x="169.31" y="74.16" class="st17" width="6.94" height="16.13"/>
			<rect x="183.18" y="74.16" class="st17" width="6.94" height="16.13"/>
			<rect x="197.05" y="74.16" class="st17" width="6.94" height="16.13"/>
			<rect x="210.92" y="74.16" class="st17" width="6.94" height="16.13"/>
			<rect x="162.37" y="90.29" class="st17" width="6.94" height="16.13"/>
			<rect x="176.24" y="90.29" class="st17" width="6.94" height="16.13"/>
			<rect x="190.11" y="90.29" class="st17" width="6.94" height="16.13"/>
			<rect x="203.98" y="90.29" class="st17" width="6.94" height="16.13"/>
			<rect x="155.44" y="106.41" class="st17" width="6.94" height="16.13"/>
			<rect x="169.31" y="106.41" class="st17" width="6.94" height="16.13"/>
			<rect x="183.18" y="106.41" class="st17" width="6.94" height="16.13"/>
			<rect x="197.05" y="106.41" class="st17" width="6.94" height="16.13"/>
			<rect x="210.92" y="106.41" class="st17" width="6.94" height="16.13"/>
			<rect x="162.37" y="122.54" class="st17" width="6.94" height="16.13"/>
			<rect x="176.24" y="122.54" class="st17" width="6.94" height="16.13"/>
			<rect x="190.11" y="122.54" class="st17" width="6.94" height="16.13"/>
			<rect x="203.98" y="122.54" class="st17" width="6.94" height="16.13"/>
			<rect x="155.44" y="138.67" class="st17" width="6.94" height="16.13"/>
			<rect x="169.31" y="138.67" class="st17" width="6.94" height="16.13"/>
			<rect x="183.18" y="138.67" class="st17" width="6.94" height="16.13"/>
			<rect x="197.05" y="138.67" class="st17" width="6.94" height="16.13"/>
			<rect x="210.92" y="138.67" class="st17" width="6.94" height="16.13"/>
			<rect x="162.37" y="154.8" class="st17" width="6.94" height="16.13"/>
			<rect x="176.24" y="154.8" class="st17" width="6.94" height="16.13"/>
			<rect x="190.11" y="154.8" class="st17" width="6.94" height="16.13"/>
			<rect x="203.98" y="154.8" class="st17" width="6.94" height="16.13"/>
			<rect x="155.44" y="170.93" class="st17" width="6.94" height="16.13"/>
			<rect x="169.31" y="170.93" class="st17" width="6.94" height="16.13"/>
			<rect x="183.18" y="170.93" class="st17" width="6.94" height="16.13"/>
			<rect x="197.05" y="170.93" class="st17" width="6.94" height="16.13"/>
			<rect x="210.92" y="170.93" class="st17" width="6.94" height="16.13"/>
			<rect x="162.37" y="187.06" class="st17" width="6.94" height="16.13"/>
			<rect x="176.24" y="187.06" class="st17" width="6.94" height="16.13"/>
			<rect x="190.11" y="187.06" class="st17" width="6.94" height="16.13"/>
			<rect x="203.98" y="187.06" class="st17" width="6.94" height="16.13"/>
			<rect x="155.44" y="203.19" class="st17" width="6.94" height="16.13"/>
			<rect x="169.31" y="203.19" class="st17" width="6.94" height="16.13"/>
			<rect x="183.18" y="203.19" class="st17" width="6.94" height="16.13"/>
			<rect x="197.05" y="203.19" class="st17" width="6.94" height="16.13"/>
			<rect x="210.92" y="203.19" class="st17" width="6.94" height="16.13"/>
			<rect x="162.37" y="219.32" class="st17" width="6.94" height="16.13"/>
			<rect x="176.24" y="219.32" class="st17" width="6.94" height="16.13"/>
			<rect x="190.11" y="219.32" class="st17" width="6.94" height="16.13"/>
			<rect x="203.98" y="219.32" class="st17" width="6.94" height="16.13"/>
			<rect x="155.44" y="235.45" class="st17" width="6.94" height="16.13"/>
			<rect x="169.31" y="235.45" class="st17" width="6.94" height="16.13"/>
			<rect x="183.18" y="235.45" class="st17" width="6.94" height="16.13"/>
			<rect x="197.05" y="235.45" class="st17" width="6.94" height="16.13"/>
			<rect x="210.92" y="235.45" class="st17" width="6.94" height="16.13"/>
			<rect x="162.37" y="251.58" class="st17" width="6.94" height="16.13"/>
			<rect x="176.24" y="251.58" class="st17" width="6.94" height="16.13"/>
			<rect x="190.11" y="251.58" class="st17" width="6.94" height="16.13"/>
			<rect x="203.98" y="251.58" class="st17" width="6.94" height="16.13"/>
		</g>
	</g>
</g>
<g>
	<defs>
		<path id="SVGID_13_" d="M241.7,118.84l-6.9-33.6c0,0-2.1-12.2-2-20.1c0,0-0.8-26.9-19.3-35.6c0,0-6.5-3-15-5c0,0-20.8-6-33.5-14.9
			c0,0-10.9,20.2-31,24.8c-20.1-4.6-31-24.8-31-24.8c-12.8,8.9-33.6,14.9-33.6,14.9c-8.5,2-15,5-15,5c-18.6,8.7-19.3,35.6-19.3,35.6
			c0.1,7.9-2,20.1-2,20.1l-6.8,33.6c-0.1,0.3,0,0.6,0.2,0.8c7.5,8.3,33.2,5.9,37.3,5.3c0.4-0.1,0.7-0.4,0.8-0.8
			c1.2-8.7,2.3-15.1,3.5-23.9c4.3,8,8.4,17.5,11.1,32.9c2.9,17-0.1,48-0.9,58c-2.1,27.7-3.1,32.5-4.7,52.2c-0.5,5.6,2.6,11,7.6,13.5
			c22.2,10.9,50.5,10.6,52.8,10.6s30.6,0.3,52.8-10.6c5.1-2.5,8.1-7.8,7.6-13.4c-1.6-19.7-2.6-24.4-4.7-52.2c-0.8-10-3.8-41-0.9-58
			c2.7-15.4,6.8-25,11.1-32.9c1.2,8.8,2.3,15.2,3.5,23.9c0.1,0.4,0.4,0.7,0.8,0.8c4.1,0.6,29.8,3,37.3-5.3
			C241.7,119.44,241.8,119.14,241.7,118.84z"/>
	</defs>
	<clipPath id="SVGID_14_">
		<use xlink:href="#SVGID_13_"  style="overflow:visible;"/>
	</clipPath>
	<g class="st19">
		<g id="SVGID_45_">
			<path class="st20" d="M79.14,133.21c1.67,9.08,1.63,18.37,1.49,27.57C80.41,170,79.72,179.2,79,188.37
				c-0.76,9.17-1.48,18.36-2.44,27.52l-2.96,27.47c0.26-4.6,0.62-9.19,0.98-13.78l1.21-13.76c0.81-9.17,1.54-18.34,2.21-27.53
				c0.81-9.17,1.48-18.35,1.86-27.54c0.19-4.59,0.28-9.19,0.21-13.79C80.02,142.37,79.8,137.77,79.14,133.21z"/>
		</g>
		<g id="SVGID_42_">
			<path class="st20" d="M188.9,133.21c-0.66,4.56-0.88,9.16-0.93,13.76c-0.07,4.6,0.02,9.2,0.21,13.79
				c0.39,9.19,1.06,18.36,1.86,27.54c0.68,9.19,1.41,18.36,2.21,27.53l1.21,13.76c0.36,4.59,0.72,9.18,0.98,13.78l-2.96-27.47
				c-0.97-9.16-1.69-18.35-2.44-27.52c-0.72-9.18-1.41-18.38-1.63-27.59C187.27,151.58,187.23,142.29,188.9,133.21z"/>
		</g>
		<path class="st20" d="M68.03,100.28c0,0,16.97,12.4,14.65,67.56l-2.85,2.23C79.83,170.07,75.38,113.04,68.03,100.28z
			 M200.01,100.28c0,0-16.97,12.4-14.65,67.56l2.85,2.23C188.22,170.07,192.66,113.04,200.01,100.28z"/>
	</g>
</g>
</svg>
