<?xml version="1.0" encoding="utf-8"?>
<!-- Generator: Adobe Illustrator 25.3.1, SVG Export Plug-In . SVG Version: 6.00 Build 0)  -->
<svg version="1.1" id="Layer_1" xmlns="http://www.w3.org/2000/svg" xmlns:xlink="http://www.w3.org/1999/xlink" x="0px" y="0px"
	 viewBox="0 0 268 268" style="enable-background:new 0 0 268 268;" xml:space="preserve">
<style type="text/css">
	.st0{fill:#1D345E;}
	.st1{fill:#408DC1;}
	.st2{fill:none;stroke:#BCBCBC;stroke-width:3.3322;stroke-miterlimit:10;}
	.st3{fill:#5BA3DD;}
	.st4{clip-path:url(#SVGID_2_);}
	.st5{fill:#EEEEEE;}
</style>
<polygon class="st0" points="155.97,30.2 166.03,15.14 155.03,6.39 114.03,6.58 101.16,15.76 115.28,31.95 134.47,41.83 "/>
<polygon class="st1" points="156.58,30.08 166.64,15.01 155.64,6.26 114.64,6.45 101.77,15.64 115.89,31.83 135.08,41.7 "/>
<path class="st1" d="M164.81,14.91l2.94-6.18c0,0-33.16-17.55-67.57,0l2.54,6.42C102.72,15.14,130.59-0.32,164.81,14.91z"/>
<path class="st2" d="M100.8,12.21c0,0,29.51-18.01,65.75-0.27"/>
<path class="st3" d="M234.86,84.89c0,0-2.06-12.15-1.99-20.09c0,0-0.76-26.89-19.33-35.6c0,0-6.49-2.98-14.97-4.97
	c0,0-14.45-3.08-26.62-10.03l-0.07-0.06c-1.28-1.08-2.37-2.37-3.21-3.82l-0.92-1.59c-4,7.38-14.72,23.55-33.53,27.83
	c-19.14-4.36-30.11-20.76-34.04-27.83c0,0-1.89,3.68-4.84,5.47c-12.09,7.12-25.91,10.03-25.91,10.03
	c-8.48,1.99-14.97,4.97-14.97,4.97c-18.56,8.71-19.33,35.6-19.33,35.6c0.08,7.95-1.99,20.09-1.99,20.09l-6.86,33.63
	c-0.06,0.28,0.01,0.58,0.21,0.79c7.45,8.28,33.18,5.89,37.28,5.33c0.41-0.06,0.73-0.38,0.79-0.79c1.19-8.71,2.28-15.08,3.47-23.91
	c4.29,7.97,8.43,17.48,11.11,32.93c2.94,16.96-0.11,48.02-0.87,57.98c-2.12,27.72-3.07,32.48-4.68,52.17
	c-0.46,5.63,2.56,10.97,7.63,13.45c22.21,10.9,50.5,10.65,52.8,10.62c2.29,0.03,30.59,0.28,52.8-10.62
	c5.07-2.49,8.09-7.83,7.63-13.45c-1.61-19.69-2.56-24.45-4.68-52.17c-0.76-9.96-3.81-41.02-0.87-57.98
	c2.68-15.44,6.82-24.96,11.11-32.93c1.19,8.83,2.28,15.2,3.47,23.91c0.06,0.41,0.38,0.73,0.79,0.79c4.1,0.55,29.83,2.95,37.28-5.33
	c0.16-0.21,0.23-0.51,0.17-0.79L234.86,84.89z"/>
<g>
	<defs>
		<path id="SVGID_1_" d="M234.86,84.89c0,0-2.06-12.15-1.99-20.09c0,0-0.76-26.89-19.33-35.6c0,0-6.49-2.98-14.97-4.97
			c0,0-14.45-3.08-26.62-10.03l-0.07-0.06c-1.28-1.08-2.37-2.37-3.21-3.82l-0.92-1.59c-4,7.38-14.72,23.55-33.53,27.83
			c-19.14-4.36-30.11-20.76-34.04-27.83c0,0-1.89,3.68-4.84,5.47c-12.09,7.12-25.91,10.03-25.91,10.03
			c-8.48,1.99-14.97,4.97-14.97,4.97c-18.56,8.71-19.33,35.6-19.33,35.6c0.08,7.95-1.99,20.09-1.99,20.09l-6.86,33.63
			c-0.06,0.28,0.01,0.58,0.21,0.79c7.45,8.28,33.18,5.89,37.28,5.33c0.41-0.06,0.73-0.38,0.79-0.79c1.19-8.71,2.28-15.08,3.47-23.91
			c4.29,7.97,8.43,17.48,11.11,32.93c2.94,16.96-0.11,48.02-0.87,57.98c-2.12,27.72-3.07,32.48-4.68,52.17
			c-0.46,5.63,2.56,10.97,7.63,13.45c22.21,10.9,50.5,10.65,52.8,10.62c2.29,0.03,30.59,0.28,52.8-10.62
			c5.07-2.49,8.09-7.83,7.63-13.45c-1.61-19.69-2.56-24.45-4.68-52.17c-0.76-9.96-3.81-41.02-0.87-57.98
			c2.68-15.44,6.82-24.96,11.11-32.93c1.19,8.83,2.28,15.2,3.47,23.91c0.06,0.41,0.38,0.73,0.79,0.79
			c4.1,0.55,29.83,2.95,37.28-5.33c0.16-0.21,0.23-0.51,0.17-0.79L234.86,84.89z"/>
	</defs>
	<clipPath id="SVGID_2_">
		<use xlink:href="#SVGID_1_"  style="overflow:visible;"/>
	</clipPath>
	<g class="st4">
		<g>
			<path class="st5" d="M58.25,128.49l7.05-38.62c0,0,8.26,6.45,16,28.9s6.19,58.84,6.19,58.84l-17.16-24.77L58.25,128.49z"/>
		</g>
		<g>
			<path class="st5" d="M209.75,128.49l-7.05-38.62c0,0-8.26,6.45-16,28.9c-7.74,22.45-6.19,58.84-6.19,58.84l17.16-24.77
				L209.75,128.49z"/>
		</g>
	</g>
</g>
</svg>
