<?xml version="1.0" encoding="utf-8"?>
<!-- Generator: Adobe Illustrator 25.3.1, SVG Export Plug-In . SVG Version: 6.00 Build 0)  -->
<svg version="1.1" id="Layer_1" xmlns="http://www.w3.org/2000/svg" xmlns:xlink="http://www.w3.org/1999/xlink" x="0px" y="0px"
	 viewBox="0 0 268 268" style="enable-background:new 0 0 268 268;" xml:space="preserve">
<style type="text/css">
	.st0{fill:#F4F4F4;}
	.st1{fill:none;stroke:#1B367B;stroke-miterlimit:10;}
	.st2{fill:#B7BABF;}
	.st3{fill:#C9C6CD;}
</style>
<path class="st0" d="M241.7,118.9l-6.9-33.6c0,0-2.1-12.2-2-20.1c0,0-0.8-26.9-19.3-35.6c0,0-6.5-3-15-5c0,0-20.8-6-33.5-14.9
	c0,0-10.9,20.2-31,24.8c-20.1-4.6-31-24.8-31-24.8c-12.8,8.9-33.5,14.9-33.5,14.9c-8.5,2-15,5-15,5c-18.6,8.7-19.3,35.6-19.3,35.6
	c0.1,7.9-2,20.1-2,20.1l-6.9,33.6c-0.1,0.3,0,0.6,0.2,0.8c7.5,8.3,33.2,5.9,37.3,5.3c0.4-0.1,0.7-0.4,0.8-0.8
	c1.2-8.7,2.3-15.1,3.5-23.9c4.3,8,8.4,17.5,11.1,32.9c2.9,17-0.1,48-0.9,58c-2.1,27.7-3.1,32.5-4.7,52.2c-0.5,5.6,2.6,11,7.6,13.5
	c22.2,10.9,50.5,10.6,52.8,10.6c2.3,0,30.6,0.3,52.8-10.6c5.1-2.5,8.1-7.8,7.6-13.4c-1.6-19.7-2.6-24.4-4.7-52.2
	c-0.8-10-3.8-41-0.9-58c2.7-15.4,6.8-25,11.1-32.9c1.2,8.8,2.3,15.2,3.5,23.9c0.1,0.4,0.4,0.7,0.8,0.8c4.1,0.6,29.8,2.9,37.3-5.3
	C241.7,119.4,241.8,119.1,241.7,118.9z"/>
<path class="st1" d="M200,100.3"/>
<polygon class="st2" points="155.9,29.8 165.9,14.8 154.9,6 113.9,6.2 101.1,15.4 115.2,31.6 134.2,38.5 "/>
<path class="st3" d="M136.1,0.6L134,4.3l-2.1-3.7c-9.8,0.1-20.7,2.1-31.8,7.8l2.5,6.4c0,0,27.9-15.5,62.1-0.2l2.9-6.2
	C167.6,8.4,154.5,1.4,136.1,0.6z"/>
<path class="st0" d="M167.6,8.4c-1.6,3-4.4,11.2-8.3,15.8c-13.3,15.3-37,15.3-50.6,0.2c-4.2-4.6-7-13-8.7-15.9L95.8,14
	c0,0,5.4,12.4,18,19.8c13.6,8,26.1,8.4,40.5-0.1C166.9,26.3,172,14,172,14L167.6,8.4z"/>
<g>
	<polygon class="st3" points="95.8,14 105.4,21.9 115,29.9 134.2,45.9 133.8,45.9 152.9,29.9 162.4,21.9 172,14 162.6,22.1 
		153.1,30.1 134.2,46.2 134,46.4 133.8,46.2 114.8,30.1 105.3,22.1 	"/>
</g>
</svg>
