<?xml version="1.0" encoding="utf-8"?>
<!-- Generator: Adobe Illustrator 24.1.1, SVG Export Plug-In . SVG Version: 6.00 Build 0)  -->
<svg version="1.1" xmlns="http://www.w3.org/2000/svg" xmlns:xlink="http://www.w3.org/1999/xlink" x="0px" y="0px"
	 viewBox="0 0 268 268" style="enable-background:new 0 0 268 268;" xml:space="preserve">
<style type="text/css">
	.st0{fill:#A3C5E9;}
	.st1{fill:#7B003A;}
	.st2{fill:#FFEF00;}
	.st3{fill:#FFFFFF;}
	.st4{fill:url(#SVGID_1_);stroke:#000000;stroke-width:9;stroke-miterlimit:10;}
	.st5{fill:none;stroke:#000000;stroke-width:6;stroke-miterlimit:10;}
	.st6{fill:#FFFFFF;stroke:#000000;stroke-width:0.25;stroke-miterlimit:10;}
	.st7{fill:none;stroke:#000000;stroke-width:9;stroke-miterlimit:10;}
	.st8{fill:#FFFFFF;stroke:#005AAB;stroke-width:6;stroke-miterlimit:10;}
	.st9{fill:#005AAB;}
	.st10{fill:#FFFFFF;stroke:#005AAB;stroke-miterlimit:10;}
	.st11{fill:#FDB813;}
	.st12{fill:#8CD2F4;stroke:#FFF205;stroke-width:7;stroke-miterlimit:10;}
	.st13{fill:#690039;}
	.st14{fill:#FFF205;stroke:#FDBB2F;stroke-width:3;stroke-miterlimit:10;}
	.st15{fill:#000525;}
	.st16{fill:#000525;stroke:#FDBB2F;stroke-miterlimit:10;}
	.st17{fill:none;stroke:#FDBB2F;stroke-width:3;stroke-miterlimit:10;}
	.st18{fill:#FEF200;stroke:#000000;stroke-width:0.25;stroke-miterlimit:10;}
	.st19{fill:#1B458F;stroke:#FFFFFF;stroke-width:2;stroke-miterlimit:10;}
	.st20{fill:#D3D2D2;stroke:#FFFFFF;stroke-miterlimit:10;}
	.st21{fill:#A7A5A6;stroke:#FFFFFF;stroke-miterlimit:10;}
	.st22{fill:#C4122E;}
	.st23{fill:none;stroke:#FFFFFF;stroke-width:0.5;stroke-miterlimit:10;}
	.st24{fill:#FFFFFF;stroke:#C4122E;stroke-width:2;stroke-miterlimit:10;}
	.st25{fill:#C4122E;stroke:#FFFFFF;stroke-width:2;stroke-miterlimit:10;}
	.st26{fill:none;stroke:#C4122E;stroke-width:2;stroke-miterlimit:10;}
	.st27{fill:#1B458F;}
	.st28{fill:#274488;stroke:#FFFFFF;stroke-miterlimit:10;}
	.st29{fill:#274488;}
	.st30{fill:#274488;stroke:#FFFFFF;stroke-width:2;stroke-miterlimit:10;}
	.st31{fill:#FFFFFF;stroke:#00529F;stroke-width:8;stroke-miterlimit:10;}
	.st32{fill:#FFFFFF;stroke:#00529F;stroke-miterlimit:10;}
	.st33{fill:#00529F;}
	.st34{fill:#EFB310;stroke:#00529F;stroke-width:3;stroke-miterlimit:10;}
	.st35{fill:none;stroke:#00529F;stroke-width:2;stroke-miterlimit:10;}
	.st36{fill:#EF3E2E;stroke:#000000;stroke-width:0.5;stroke-miterlimit:10;}
	.st37{fill:#00B6F1;stroke:#000000;stroke-width:0.5;stroke-miterlimit:10;}
	.st38{fill:#FFFFFF;stroke:#000000;stroke-width:0.5;stroke-miterlimit:10;}
	.st39{fill:#F0B83D;stroke:#000000;stroke-width:0.5;stroke-miterlimit:10;}
	.st40{fill:#231F20;}
	.st41{fill:#2D8DAD;stroke:#000000;stroke-miterlimit:10;}
	.st42{fill:none;stroke:#F0B83D;stroke-width:3;stroke-miterlimit:10;}
	.st43{fill:#BBBDBF;stroke:#000000;stroke-width:0.5;stroke-miterlimit:10;}
	.st44{fill:#BBBDBF;}
	.st45{stroke:#000000;stroke-width:0.5;stroke-miterlimit:10;}
	.st46{fill:#00A650;stroke:#000000;stroke-width:7;stroke-miterlimit:10;}
	.st47{fill:#FFF200;stroke:#000000;stroke-miterlimit:10;}
	.st48{fill:none;stroke:#000000;stroke-miterlimit:10;}
	.st49{fill:#EC2227;stroke:#FFFFFF;stroke-width:7;stroke-miterlimit:10;}
	.st50{stroke:#FFFFFF;stroke-width:7;stroke-miterlimit:10;}
	.st51{fill:#FCEE23;stroke:#000000;stroke-width:2;stroke-miterlimit:10;}
	.st52{fill:#FFFFFF;stroke:#000000;stroke-width:2;stroke-miterlimit:10;}
	.st53{fill:#FFFFFF;stroke:#000000;stroke-miterlimit:10;}
	.st54{fill:none;}
	.st55{fill:#CE0910;}
	.st56{fill:#0096E9;}
	.st57{fill:none;stroke:#000000;stroke-width:2;stroke-miterlimit:10;}
	.st58{fill:#071516;}
	.st59{fill:#FAC005;stroke:#000000;stroke-width:3;stroke-miterlimit:10;}
	.st60{fill:#209C0A;stroke:#000000;stroke-width:2;stroke-miterlimit:10;}
	.st61{fill:#F8EF24;}
	.st62{fill:none;stroke:#ED2329;stroke-width:11;stroke-miterlimit:10;}
	.st63{fill:#F8EF24;stroke:#ED2329;stroke-width:11;stroke-miterlimit:10;}
	.st64{fill:#ED2329;stroke:#000000;stroke-miterlimit:10;}
	.st65{fill:#ED2329;}
	.st66{fill:#7C2C3B;stroke:#2DAFE5;stroke-width:12;stroke-miterlimit:10;}
	.st67{fill:#F8D742;}
</style>
<g id="Guias">
</g>
<g id="Aston_Villa">
</g>
<g id="Bournemouth">
</g>
<g id="Brighton">
</g>
<g id="Camada_5">
</g>
<g id="Crystal_Palace">
</g>
<g id="Everton">
</g>
<g id="Leicester">
</g>
<g id="Newcastle">
</g>
<g id="Norwich">
</g>
<g id="Sheffield_Utd.">
</g>
<g id="Southampton">
</g>
<g id="Watford">
</g>
<g id="West_Ham">
	<g>
		<path class="st66" d="M21.3,17.8v109.4c0,0-6.1,99.1,114,133.6c0,0,109-35.8,111.9-133.6V17.6C205.6,4.4,61.4,4.9,21.3,17.8z"/>
		<g>
			<path class="st67" d="M191.4,200.5L87.7,94.3l-22.6,16.9c0,0-4.9,1.8-3.5-3.5l10.2-15.9c0,0,1.4-4.9,0.4-7.1
				c-1.1-2.1,3.6-6.6,3.6-6.6L93.5,61c0,0,1.5-1.1,2.5,0c1.1,1.1,10.3,10.1,10.3,10.1s1.8,1.4-0.1,3.4S95.7,86.4,95.7,86.4
				L202,190.3C202,190.3,201.8,199.2,191.4,200.5z"/>
			<path class="st67" d="M71.9,200.5L175.7,94.3l22.6,16.9c0,0,4.9,1.8,3.5-3.5l-10.2-15.9c0,0-1.4-4.9-0.4-7.1
				c1.1-2.1-3.6-6.6-3.6-6.6L169.8,61c0,0-1.5-1.1-2.5,0S157,71.1,157,71.1s-1.8,1.4,0.1,3.4c1.9,1.9,10.6,11.9,10.6,11.9
				L61.4,190.3C61.4,190.3,61.5,199.2,71.9,200.5z"/>
		</g>
	</g>
</g>
</svg>
